<?xml version="1.0" encoding="UTF-8"?>
<svg version="1.1" xmlns="http://www.w3.org/2000/svg" width="1254" height="1254">
<path d="M0 0 C413.82 0 827.64 0 1254 0 C1254 413.82 1254 827.64 1254 1254 C840.18 1254 426.36 1254 0 1254 C0 840.18 0 426.36 0 0 Z " fill="#FDFAF5" transform="translate(0,0)"/>
<path d="M0 0 C3.43544784 1.4816022 5.6662509 3.41706856 8.3019104 6.05467224 C9.1543483 6.90291565 10.00678619 7.75115906 10.88505554 8.62510681 C11.81195694 9.55762772 12.73885834 10.49014862 13.69384766 11.45092773 C14.68583204 12.44183889 15.6782493 13.43231685 16.67106628 14.4223938 C19.36349116 17.10997407 22.0496287 19.80375865 24.73455095 22.49883151 C27.54503772 25.31810476 30.36079822 28.13210172 33.1758728 30.9467926 C37.9019157 35.67377185 42.62407055 40.40460702 47.34375 45.13793945 C52.80155635 50.61147552 58.26457588 56.07976325 63.73061907 61.54507297 C68.98805792 66.80190159 74.24263358 72.06158193 79.49561691 77.32286263 C81.73163241 79.56240982 83.96849603 81.80110483 86.20601273 84.03915215 C88.83984478 86.67398833 91.47111291 89.3113589 94.10041237 91.95071793 C95.52729172 93.38191414 96.95661431 94.81067317 98.38600159 96.23936462 C99.23279984 97.09042786 100.07959808 97.94149109 100.95205688 98.81834412 C101.68982676 99.55778983 102.42759663 100.29723555 103.18772316 101.05908871 C105 103 105 103 107 106 C109.65379244 106.46473769 109.65379244 106.46473769 112.82119751 106.39872742 C114.06082748 106.41126556 115.30045746 106.42380371 116.57765198 106.4367218 C117.95883205 106.43554762 119.3400119 106.43408842 120.72119141 106.43237305 C122.1697524 106.44138519 123.61830574 106.45171105 125.06684875 106.46325684 C129.00670725 106.4909177 132.94642142 106.50012358 136.88636446 106.50611091 C141.00107361 106.51547107 145.11567395 106.54167242 149.23031616 106.56611633 C157.02528247 106.6098502 164.82022774 106.63835476 172.61527956 106.66143972 C181.48825453 106.68845459 190.36112041 106.73236829 199.23401761 106.77772844 C217.48928755 106.87067329 235.74458634 106.94230885 254 107 C254.00238835 107.73421834 254.00477671 108.46843668 254.00723743 109.22490406 C254.06633089 127.07643761 254.14184448 144.92783222 254.23571491 162.77921772 C254.28071222 171.41196282 254.32011771 180.04466631 254.34643555 188.67749023 C254.36938386 196.20041257 254.40274617 203.72320364 254.44870156 211.24602193 C254.47267673 215.23063218 254.49137726 219.21511208 254.49761391 223.19979286 C254.50364549 226.94843777 254.52357473 230.69674897 254.55427551 234.44527054 C254.56308683 235.82272338 254.56677194 237.20021977 254.56500816 238.57769966 C254.56336274 240.45530578 254.58177494 242.33289784 254.60127258 244.21040344 C254.60588155 245.26216924 254.61049051 246.31393503 254.61523914 247.39757252 C255.05597843 250.3786243 255.77224377 251.09231252 258 253 C258 253.66 258 254.32 258 255 C258.82177734 255.33064453 258.82177734 255.33064453 259.66015625 255.66796875 C262.73548994 257.41870129 265.00158721 259.78947066 267.4375 262.3125 C267.90220703 262.78623047 268.36691406 263.25996094 268.84570312 263.74804688 C270.23322758 265.16266386 271.61663507 266.58131512 273 268 C274.66406859 269.6692607 276.33072305 271.33594771 278 273 C289 284 289 284 291.2890625 286.29296875 C293.58114985 288.58175338 295.87938516 290.86401537 298.1796875 293.14453125 C299.74485315 294.70045899 301.3099557 296.2564502 302.875 297.8125 C303.65230469 298.58142578 304.42960938 299.35035156 305.23046875 300.14257812 C305.99746094 300.90634766 306.76445313 301.67011719 307.5546875 302.45703125 C308.24030762 303.13741455 308.92592773 303.81779785 309.63232422 304.51879883 C311.55893508 306.53778688 313.38304124 308.58804388 315.2019043 310.7019043 C319.33124322 315.45130668 323.75224016 319.87809008 328.21484375 324.3125 C329.49845543 325.59398926 329.49845543 325.59398926 330.80799866 326.90136719 C333.51547381 329.60328862 336.22642254 332.30169359 338.9375 335 C340.78473675 336.84221577 342.63174427 338.68466143 344.47851562 340.52734375 C348.98303003 345.02089061 353.49039405 349.5115632 358 354 C356.46952808 357.62272247 354.31344151 359.92872656 351.5378418 362.68920898 C350.61315598 363.61374374 349.68847015 364.5382785 348.73576355 365.49082947 C347.72368486 366.4926882 346.71150064 367.49444033 345.69921875 368.49609375 C344.65986641 369.53171154 343.62095802 370.56777505 342.58247375 371.60426331 C339.84827865 374.33083157 337.10813815 377.05134762 334.36669922 379.77062988 C331.59050314 382.52644243 328.81988071 385.28784538 326.04882812 388.04882812 C321.16104132 392.91749198 316.26837631 397.78119801 311.37211609 402.64134216 C310.58931778 403.41969925 309.80651947 404.19805634 309 405 C308.11234451 405.87539932 307.22468903 406.75079865 306.31013489 407.65272522 C303.98372828 409.91854151 303.98372828 409.91854151 302.1875 412.375 C300.3293849 414.60473812 298.56530454 416.31323139 296.375 418.1875 C289.24578333 424.294464 282.75605206 431.00161336 276.65234375 438.125 C273.91526779 441.2309018 270.95789663 444.10640547 268 447 C267.175 447.825 266.35 448.65 265.5 449.5 C264.675 450.325 263.85 451.15 263 452 C262.40832031 452.61488281 261.81664062 453.22976563 261.20703125 453.86328125 C260.58183594 454.50652344 259.95664062 455.14976562 259.3125 455.8125 C258.73113281 456.41707031 258.14976562 457.02164062 257.55078125 457.64453125 C256 459 256 459 254 459 C254.00553076 459.99555058 254.00553076 459.99555058 254.01117325 461.0112133 C254.09992361 477.24056235 254.16590223 493.46983346 254.20724869 509.69936943 C254.22778047 517.54820403 254.25571887 525.3968756 254.30175781 533.24560547 C254.34191589 540.09509056 254.36750079 546.94445745 254.37635398 553.79405701 C254.38152034 557.41318616 254.39346082 561.03197747 254.42292023 564.65099716 C254.66495571 595.62728309 250.36600628 619.96591568 228.5 642.875 C214.63975106 656.13052604 194.42860767 666.19671793 175 667 C172.55012462 666.84399282 170.10191731 666.66063497 167.6554718 666.45782471 C153.48960488 665.47518454 141.4708733 665.64668846 130.27427959 675.21043015 C124.94575739 680.06757591 119.9887475 685.25742356 115.10120559 690.55279446 C112.13026186 693.73364794 109.06195535 696.81800316 106.00398254 699.91485596 C100.2506065 705.76988393 94.58634033 711.70348314 88.95121127 717.67216039 C82.54043954 724.45383973 76.03396265 731.14035169 69.51827466 737.82104635 C58.38775607 749.23669704 47.32921657 760.71813017 36.3520813 772.28134155 C35.00189659 773.70306168 35.00189659 773.70306168 33.62443542 775.15350342 C32.84727771 775.97352215 32.07011999 776.79354088 31.26941204 777.63840866 C28.87875506 780.12616969 26.44679341 782.56751899 24 785 C23.14623779 785.85376221 22.29247559 786.70752441 21.4128418 787.5871582 C14.94189453 794.05810547 8.47094727 800.52905273 2 807 C-2.02396261 805.44196998 -4.02296437 802.87096531 -6.71307373 799.56517029 C-7.67224998 798.39923716 -8.6316725 797.2335066 -9.59130192 796.06794643 C-10.10177039 795.44310167 -10.61223887 794.81825691 -11.13817608 794.17447746 C-27.3660824 774.36266907 -44.37985945 755.25068203 -61.75 736.4375 C-62.49939897 735.62449008 -63.24879794 734.81148015 -64.02090597 733.97383356 C-100.51059875 694.48396862 -134.0660383 660.35017061 -190.20535278 658.12208557 C-200.01802824 657.84951653 -209.77319858 658.28166922 -219.5625 658.9375 C-220.3647595 658.98956399 -221.167019 659.04162799 -221.9935894 659.09526968 C-242.54644355 660.45543919 -262.78307028 663.02353165 -283 667 C-282.93029999 665.22981758 -282.93029999 665.22981758 -282.85919189 663.4238739 C-281.75811277 635.12732215 -280.96305272 606.83238983 -280.52252382 578.51809585 C-280.46753358 575.0001459 -280.41007056 571.48224041 -280.35107422 567.96435547 C-280.33937545 567.26428792 -280.32767668 566.56422038 -280.3156234 565.84293866 C-280.14642746 556.02445756 -279.84422188 546.21801986 -279.43456423 536.40674603 C-273.33174082 465.64949328 -273.33174082 465.64949328 -300.26463318 403.7767334 C-311.17586491 392.17854219 -323.85581605 382.37732963 -337.29966736 373.89956665 C-340.20958591 371.85256542 -342.55316408 369.57542864 -345 367 C-345.52053955 366.47946045 -346.0410791 365.9589209 -346.57739258 365.42260742 C-349.71826172 362.28173828 -352.85913086 359.14086914 -356 356 C-354.5578983 352.6934382 -352.76940617 350.53038606 -350.2121582 348.00097656 C-349.04503044 346.83891693 -349.04503044 346.83891693 -347.85432434 345.65338135 C-347.01165512 344.82417175 -346.1689859 343.99496216 -345.30078125 343.140625 C-344.43237106 342.27741638 -343.56396088 341.41420776 -342.66923523 340.52484131 C-339.88835415 337.7617785 -337.10090682 335.00546626 -334.3125 332.25 C-331.5427753 329.5080039 -328.77455588 326.76453165 -326.00932312 324.01800537 C-324.2891591 322.309973 -322.56632939 320.60461961 -320.84040833 318.90240479 C-316.4705413 314.56848835 -312.31266793 310.17143907 -308.39738464 305.41986084 C-307.93624771 304.95130676 -307.47511078 304.48275269 -307 304 C-306.34 304 -305.68 304 -305 304 C-304.65020081 303.16320709 -304.65020081 303.16320709 -304.29333496 302.30950928 C-302.66795755 299.40707154 -300.65801345 297.40357491 -298.30664062 295.04785156 C-297.59413399 294.33008797 -297.59413399 294.33008797 -296.86723328 293.5978241 C-295.30188647 292.02370191 -293.72937006 290.45697606 -292.15625 288.890625 C-291.06501471 287.7980423 -289.97407645 286.70516288 -288.88342285 285.61199951 C-286.60016205 283.32579351 -284.31333087 281.0432362 -282.02392578 278.76318359 C-279.08470373 275.83538273 -276.15458691 272.89865908 -273.22705841 269.9591713 C-270.97794566 267.70284671 -268.72411 265.45128863 -266.46879578 263.20116425 C-265.38601201 262.11971745 -264.30471969 261.03677529 -263.22492981 259.95233917 C-261.71918137 258.44153368 -260.2072098 256.93725137 -258.69335938 255.43457031 C-257.83335327 254.5761554 -256.97334717 253.71774048 -256.08728027 252.83331299 C-254 251 -254 251 -252 251 C-252 203.48 -252 155.96 -252 107 C-230.09625 109.02125 -208.1925 111.0425 -185.625 113.125 C-165.53532933 113.96576689 -165.53532933 113.96576689 -145.546875 113.26171875 C-144.33673186 113.17845042 -144.33673186 113.17845042 -143.10214138 113.0934999 C-99.17881371 109.87711125 -72.24927833 84.46241329 -43.875 52.9375 C-43.30372407 52.30471036 -42.73244814 51.67192072 -42.14386082 51.01995564 C-27.34576224 34.60005605 -13.31868673 17.64250398 0 0 Z " fill="#FBF9F4" transform="translate(627,220)"/>
<path d="M0 0 C3.43544784 1.4816022 5.6662509 3.41706856 8.3019104 6.05467224 C9.1543483 6.90291565 10.00678619 7.75115906 10.88505554 8.62510681 C11.81195694 9.55762772 12.73885834 10.49014862 13.69384766 11.45092773 C14.68583204 12.44183889 15.6782493 13.43231685 16.67106628 14.4223938 C19.36349116 17.10997407 22.0496287 19.80375865 24.73455095 22.49883151 C27.54503772 25.31810476 30.36079822 28.13210172 33.1758728 30.9467926 C37.9019157 35.67377185 42.62407055 40.40460702 47.34375 45.13793945 C52.80155635 50.61147552 58.26457588 56.07976325 63.73061907 61.54507297 C68.98805792 66.80190159 74.24263358 72.06158193 79.49561691 77.32286263 C81.73163241 79.56240982 83.96849603 81.80110483 86.20601273 84.03915215 C88.83984478 86.67398833 91.47111291 89.3113589 94.10041237 91.95071793 C95.52729172 93.38191414 96.95661431 94.81067317 98.38600159 96.23936462 C99.23279984 97.09042786 100.07959808 97.94149109 100.95205688 98.81834412 C101.68982676 99.55778983 102.42759663 100.29723555 103.18772316 101.05908871 C105 103 105 103 107 106 C109.65379244 106.46473769 109.65379244 106.46473769 112.82119751 106.39872742 C114.06082748 106.41126556 115.30045746 106.42380371 116.57765198 106.4367218 C117.95883205 106.43554762 119.3400119 106.43408842 120.72119141 106.43237305 C122.1697524 106.44138519 123.61830574 106.45171105 125.06684875 106.46325684 C129.00670725 106.4909177 132.94642142 106.50012358 136.88636446 106.50611091 C141.00107361 106.51547107 145.11567395 106.54167242 149.23031616 106.56611633 C157.02528247 106.6098502 164.82022774 106.63835476 172.61527956 106.66143972 C181.48825453 106.68845459 190.36112041 106.73236829 199.23401761 106.77772844 C217.48928755 106.87067329 235.74458634 106.94230885 254 107 C254.00238835 107.73421834 254.00477671 108.46843668 254.00723743 109.22490406 C254.06633089 127.07643761 254.14184448 144.92783222 254.23571491 162.77921772 C254.28071222 171.41196282 254.32011771 180.04466631 254.34643555 188.67749023 C254.36938386 196.20041257 254.40274617 203.72320364 254.44870156 211.24602193 C254.47267673 215.23063218 254.49137726 219.21511208 254.49761391 223.19979286 C254.50364549 226.94843777 254.52357473 230.69674897 254.55427551 234.44527054 C254.56308683 235.82272338 254.56677194 237.20021977 254.56500816 238.57769966 C254.56336274 240.45530578 254.58177494 242.33289784 254.60127258 244.21040344 C254.60588155 245.26216924 254.61049051 246.31393503 254.61523914 247.39757252 C255.05597843 250.3786243 255.77224377 251.09231252 258 253 C258 253.66 258 254.32 258 255 C258.82177734 255.33064453 258.82177734 255.33064453 259.66015625 255.66796875 C262.73548994 257.41870129 265.00158721 259.78947066 267.4375 262.3125 C267.90220703 262.78623047 268.36691406 263.25996094 268.84570312 263.74804688 C270.23322758 265.16266386 271.61663507 266.58131512 273 268 C274.66406859 269.6692607 276.33072305 271.33594771 278 273 C289 284 289 284 291.2890625 286.29296875 C293.58114985 288.58175338 295.87938516 290.86401537 298.1796875 293.14453125 C299.74485315 294.70045899 301.3099557 296.2564502 302.875 297.8125 C303.65230469 298.58142578 304.42960938 299.35035156 305.23046875 300.14257812 C305.99746094 300.90634766 306.76445313 301.67011719 307.5546875 302.45703125 C308.24030762 303.13741455 308.92592773 303.81779785 309.63232422 304.51879883 C311.55893508 306.53778688 313.38304124 308.58804388 315.2019043 310.7019043 C319.33124322 315.45130668 323.75224016 319.87809008 328.21484375 324.3125 C329.49845543 325.59398926 329.49845543 325.59398926 330.80799866 326.90136719 C333.51547381 329.60328862 336.22642254 332.30169359 338.9375 335 C340.78473675 336.84221577 342.63174427 338.68466143 344.47851562 340.52734375 C348.98303003 345.02089061 353.49039405 349.5115632 358 354 C356.46952808 357.62272247 354.31344151 359.92872656 351.5378418 362.68920898 C350.61315598 363.61374374 349.68847015 364.5382785 348.73576355 365.49082947 C347.72368486 366.4926882 346.71150064 367.49444033 345.69921875 368.49609375 C344.65986641 369.53171154 343.62095802 370.56777505 342.58247375 371.60426331 C339.84827865 374.33083157 337.10813815 377.05134762 334.36669922 379.77062988 C331.59050314 382.52644243 328.81988071 385.28784538 326.04882812 388.04882812 C321.16104132 392.91749198 316.26837631 397.78119801 311.37211609 402.64134216 C310.58931778 403.41969925 309.80651947 404.19805634 309 405 C308.11234451 405.87539932 307.22468903 406.75079865 306.31013489 407.65272522 C303.98372828 409.91854151 303.98372828 409.91854151 302.1875 412.375 C300.3293849 414.60473812 298.56530454 416.31323139 296.375 418.1875 C289.24578333 424.294464 282.75605206 431.00161336 276.65234375 438.125 C273.91526779 441.2309018 270.95789663 444.10640547 268 447 C267.175 447.825 266.35 448.65 265.5 449.5 C264.675 450.325 263.85 451.15 263 452 C262.40832031 452.61488281 261.81664062 453.22976563 261.20703125 453.86328125 C260.58183594 454.50652344 259.95664062 455.14976562 259.3125 455.8125 C258.73113281 456.41707031 258.14976562 457.02164062 257.55078125 457.64453125 C256 459 256 459 254 459 C254.00553076 459.99555058 254.00553076 459.99555058 254.01117325 461.0112133 C254.09992361 477.24056235 254.16590223 493.46983346 254.20724869 509.69936943 C254.22778047 517.54820403 254.25571887 525.3968756 254.30175781 533.24560547 C254.34191589 540.09509056 254.36750079 546.94445745 254.37635398 553.79405701 C254.38152034 557.41318616 254.39346082 561.03197747 254.42292023 564.65099716 C254.66495571 595.62728309 250.36600628 619.96591568 228.5 642.875 C214.63975106 656.13052604 194.42860767 666.19671793 175 667 C172.55012462 666.84399282 170.10191731 666.66063497 167.6554718 666.45782471 C153.48960488 665.47518454 141.4708733 665.64668846 130.27427959 675.21043015 C124.94575739 680.06757591 119.9887475 685.25742356 115.10120559 690.55279446 C112.13026186 693.73364794 109.06195535 696.81800316 106.00398254 699.91485596 C100.2506065 705.76988393 94.58634033 711.70348314 88.95121127 717.67216039 C82.54043954 724.45383973 76.03396265 731.14035169 69.51827466 737.82104635 C58.38775607 749.23669704 47.32921657 760.71813017 36.3520813 772.28134155 C35.00189659 773.70306168 35.00189659 773.70306168 33.62443542 775.15350342 C32.84727771 775.97352215 32.07011999 776.79354088 31.26941204 777.63840866 C28.87875506 780.12616969 26.44679341 782.56751899 24 785 C23.14623779 785.85376221 22.29247559 786.70752441 21.4128418 787.5871582 C14.94189453 794.05810547 8.47094727 800.52905273 2 807 C-2.02396261 805.44196998 -4.02296437 802.87096531 -6.71307373 799.56517029 C-7.67224998 798.39923716 -8.6316725 797.2335066 -9.59130192 796.06794643 C-10.10177039 795.44310167 -10.61223887 794.81825691 -11.13817608 794.17447746 C-27.3660824 774.36266907 -44.37985945 755.25068203 -61.75 736.4375 C-62.49939897 735.62449008 -63.24879794 734.81148015 -64.02090597 733.97383356 C-100.51059875 694.48396862 -134.0660383 660.35017061 -190.20535278 658.12208557 C-200.01802824 657.84951653 -209.77319858 658.28166922 -219.5625 658.9375 C-220.3647595 658.98956399 -221.167019 659.04162799 -221.9935894 659.09526968 C-242.54644355 660.45543919 -262.78307028 663.02353165 -283 667 C-282.93029999 665.22981758 -282.93029999 665.22981758 -282.85919189 663.4238739 C-281.75811277 635.12732215 -280.96305272 606.83238983 -280.52252382 578.51809585 C-280.46753358 575.0001459 -280.41007056 571.48224041 -280.35107422 567.96435547 C-280.33937545 567.26428792 -280.32767668 566.56422038 -280.3156234 565.84293866 C-280.14642746 556.02445756 -279.84422188 546.21801986 -279.43456423 536.40674603 C-273.33174082 465.64949328 -273.33174082 465.64949328 -300.26463318 403.7767334 C-311.17586491 392.17854219 -323.85581605 382.37732963 -337.29966736 373.89956665 C-340.20958591 371.85256542 -342.55316408 369.57542864 -345 367 C-345.52053955 366.47946045 -346.0410791 365.9589209 -346.57739258 365.42260742 C-349.71826172 362.28173828 -352.85913086 359.14086914 -356 356 C-354.5578983 352.6934382 -352.76940617 350.53038606 -350.2121582 348.00097656 C-349.04503044 346.83891693 -349.04503044 346.83891693 -347.85432434 345.65338135 C-347.01165512 344.82417175 -346.1689859 343.99496216 -345.30078125 343.140625 C-344.43237106 342.27741638 -343.56396088 341.41420776 -342.66923523 340.52484131 C-339.88835415 337.7617785 -337.10090682 335.00546626 -334.3125 332.25 C-331.5427753 329.5080039 -328.77455588 326.76453165 -326.00932312 324.01800537 C-324.2891591 322.309973 -322.56632939 320.60461961 -320.84040833 318.90240479 C-316.4705413 314.56848835 -312.31266793 310.17143907 -308.39738464 305.41986084 C-307.93624771 304.95130676 -307.47511078 304.48275269 -307 304 C-306.34 304 -305.68 304 -305 304 C-304.65020081 303.16320709 -304.65020081 303.16320709 -304.29333496 302.30950928 C-302.66795755 299.40707154 -300.65801345 297.40357491 -298.30664062 295.04785156 C-297.59413399 294.33008797 -297.59413399 294.33008797 -296.86723328 293.5978241 C-295.30188647 292.02370191 -293.72937006 290.45697606 -292.15625 288.890625 C-291.06501471 287.7980423 -289.97407645 286.70516288 -288.88342285 285.61199951 C-286.60016205 283.32579351 -284.31333087 281.0432362 -282.02392578 278.76318359 C-279.08470373 275.83538273 -276.15458691 272.89865908 -273.22705841 269.9591713 C-270.97794566 267.70284671 -268.72411 265.45128863 -266.46879578 263.20116425 C-265.38601201 262.11971745 -264.30471969 261.03677529 -263.22492981 259.95233917 C-261.71918137 258.44153368 -260.2072098 256.93725137 -258.69335938 255.43457031 C-257.83335327 254.5761554 -256.97334717 253.71774048 -256.08728027 252.83331299 C-254 251 -254 251 -252 251 C-252 203.48 -252 155.96 -252 107 C-230.09625 109.02125 -208.1925 111.0425 -185.625 113.125 C-165.53532933 113.96576689 -165.53532933 113.96576689 -145.546875 113.26171875 C-144.33673186 113.17845042 -144.33673186 113.17845042 -143.10214138 113.0934999 C-99.17881371 109.87711125 -72.24927833 84.46241329 -43.875 52.9375 C-43.30372407 52.30471036 -42.73244814 51.67192072 -42.14386082 51.01995564 C-27.34576224 34.60005605 -13.31868673 17.64250398 0 0 Z M-1.64607239 44.39718342 C-2.30532211 45.05697791 -2.96457184 45.7167724 -3.64379883 46.39656067 C-4.77949814 47.52596825 -4.77949814 47.52596825 -5.93814087 48.67819214 C-6.76937469 49.51504547 -7.60060852 50.3518988 -8.45703125 51.21411133 C-9.33193207 52.0871138 -10.20683289 52.96011627 -11.10824585 53.85957336 C-13.5127414 56.26099058 -15.9126621 58.66681196 -18.31054306 61.07482362 C-20.81809086 63.59113756 -23.33089163 66.1021955 -25.84301758 68.61393738 C-30.06315045 72.83500782 -34.27938672 77.05993901 -38.49316406 81.28735352 C-43.36586006 86.17576076 -48.24374829 91.05893641 -53.12467289 95.93912679 C-57.81613588 100.62997933 -62.50473324 105.32368467 -67.19174194 110.01898766 C-69.18772403 112.01850143 -71.18455399 114.01716279 -73.18203735 116.01517677 C-75.97202538 118.80635613 -78.75773597 121.60178021 -81.54296875 124.39770508 C-82.78981949 125.64387604 -82.78981949 125.64387604 -84.06185913 126.91522217 C-84.818992 127.67662003 -85.57612488 128.43801788 -86.35620117 129.2224884 C-87.0154509 129.88341397 -87.67470062 130.54433954 -88.35392761 131.22529316 C-90.18486952 133.10491338 -90.18486952 133.10491338 -92 136 C-94.27635384 136.38476086 -94.27635384 136.38476086 -97.17581177 136.39872742 C-98.27240112 136.41126556 -99.36899048 136.42380371 -100.49880981 136.4367218 C-101.70721527 136.43528671 -102.91562073 136.43385162 -104.16064453 136.43237305 C-106.06302887 136.44766052 -106.06302887 136.44766052 -108.00384521 136.46325684 C-111.48710933 136.49090951 -114.9702102 136.50012243 -118.45356989 136.50611091 C-122.091824 136.51547322 -125.72995512 136.54167474 -129.36813354 136.56611633 C-136.25998988 136.60984429 -143.15182243 136.63835245 -150.04377544 136.66143972 C-157.88896673 136.68845777 -165.73403468 136.73237126 -173.57913804 136.77772844 C-189.71936292 136.87066481 -205.85960987 136.94230422 -222 137 C-221.93233209 137.57654862 -221.86466417 138.15309725 -221.79494572 138.74711704 C-219.63664133 157.4799318 -218.27604613 176.22438623 -217.5625 195.0625 C-217.53460231 195.7782359 -217.50670462 196.49397181 -217.47796154 197.23139668 C-216.11742176 233.47005927 -217.53283139 263.36517122 -242.98842812 291.52828407 C-258.92616094 308.51561586 -277.23071641 323.79504286 -296.12665653 337.39173985 C-300.51025085 340.60546214 -304.03418217 344.06089859 -307.50694084 348.2468586 C-309 350 -309 350 -311.5 352.25 C-312.2425 353.11625 -312.2425 353.11625 -313 354 C-312.60533261 357.15060912 -311.57472021 358.79830689 -309.35131836 361.00512695 C-308.79661362 361.56283279 -308.24190887 362.12053864 -307.6703949 362.69514465 C-307.06631302 363.28687973 -306.46223114 363.87861481 -305.83984375 364.48828125 C-305.21654678 365.10970505 -304.59324982 365.73112885 -303.95106506 366.37138367 C-302.62882752 367.68689914 -301.30299728 368.99881192 -299.97387695 370.30737305 C-297.96254611 372.28783825 -295.96180606 374.27849677 -293.96289062 376.27148438 C-288.35051151 381.84873425 -282.73695006 387.34746502 -276.70678711 392.47583008 C-273.51443065 395.32662129 -270.68189394 398.51741148 -267.8125 401.6875 C-264.06582223 405.81908237 -260.41333483 409.56313472 -256 413 C-255.06934584 414.05357074 -254.16973059 415.13587066 -253.3125 416.25 C-250.1137198 420.11002675 -246.36360218 423.0058113 -242.4140625 426.06640625 C-239.35900113 428.51342142 -236.69350259 431.16473412 -234 434 C-235.33333333 436.66666667 -236.66666667 439.33333333 -238 442 C-238.66 442 -239.32 442 -240 442 C-240 442.66 -240 443.32 -240 444 C-240.53625 444.2475 -241.0725 444.495 -241.625 444.75 C-244.17354264 446.0367419 -244.17354264 446.0367419 -247.0625 448.0625 C-250 450 -250 450 -253 451 C-253 512.38 -253 573.76 -253 637 C-220.33 637 -187.66 637 -154 637 C-153.67 629.74 -153.34 622.48 -153 615 C-148.82768068 604.56920171 -145.60690334 599.96579497 -136 595 C-130.56161658 593.24851028 -124.66083951 593.69824938 -119.00292969 593.64990234 C-117.59488299 593.63342451 -116.18691708 593.60624285 -114.77929688 593.56787109 C-104.4578858 593.28871722 -96.56466254 594.2001489 -88.52734375 601.1328125 C-88.00269531 601.79023437 -87.47804688 602.44765625 -86.9375 603.125 C-86.38964844 603.78757812 -85.84179688 604.45015625 -85.27734375 605.1328125 C-84 607 -84 607 -83 610 C-84.30710937 610.1546875 -84.30710937 610.1546875 -85.640625 610.3125 C-96.03820916 612.44037769 -106.2404276 620.83315019 -112.625 629.10546875 C-113.87523306 631.02919045 -114.96771637 632.95214989 -116 635 C-116.32871094 635.63164063 -116.65742188 636.26328125 -116.99609375 636.9140625 C-118.12105512 639.2639818 -119.05614734 641.25245989 -118.85781193 643.89307785 C-117.62822382 646.91314127 -115.70668624 648.66141563 -113.40000916 650.96075439 C-112.91729555 651.44603127 -112.43458195 651.93130815 -111.93724066 652.43129039 C-110.3166884 654.05678707 -108.68564076 655.67132406 -107.05444336 657.28613281 C-105.8911048 658.44862524 -104.72842627 659.61177849 -103.56636047 660.77554321 C-100.40791432 663.9348513 -97.24029338 667.08481428 -94.07097316 670.23320866 C-90.76108694 673.52436113 -87.45967527 676.82399191 -84.15736389 680.1227417 C-77.90184498 686.36893045 -71.63871692 692.60743151 -65.37283474 698.84322238 C-58.24007858 705.94246481 -51.11582308 713.05021163 -43.99227703 720.15869379 C-29.33763904 734.78196075 -14.67233222 749.39448813 0 764 C3.73988939 762.43600974 6.14035251 760.12600847 9.00544739 757.28889465 C9.49551338 756.80618203 9.98557938 756.32346941 10.49049586 755.82612914 C12.12971583 754.20891856 13.76173759 752.58463752 15.39379883 750.96020508 C16.56804153 749.79849601 17.74266242 748.63716911 18.91763306 747.47619629 C22.77130341 743.66454032 26.61435509 739.84226512 30.45703125 736.01953125 C31.78065448 734.70400407 33.10434641 733.38854602 34.42810631 732.07315636 C40.64346526 725.8958773 46.85400905 719.71380683 53.05868703 713.52579957 C60.22431537 706.37974157 67.40620763 699.25056405 74.60230047 692.13518792 C80.16284932 686.6348863 85.7080265 681.11939021 91.24184817 675.59220046 C94.54813013 672.290626 97.86073095 668.99603001 101.18967628 665.71729469 C104.31892495 662.63449088 107.42871865 659.53332886 110.52450943 656.41693878 C111.66446412 655.27599044 112.81130592 654.14187624 113.96536446 653.01519585 C115.53921063 651.4766249 117.08645501 649.91542424 118.62947083 648.34602356 C119.50274426 647.47752683 120.3760177 646.60903009 121.27575397 645.71421528 C123.34637286 643.02056529 123.34637286 643.02056529 122.8688612 639.34141064 C120.5108939 630.27329131 112.52106601 622.28807595 105 617 C97.38702593 612.18089156 97.38702593 612.18089156 89 610 C91.07723432 602.72967988 95.58776856 599.69336735 102 596 C107.90709416 593.14771553 114.08697335 593.59102967 120.49975586 593.57446289 C122.6644212 593.5626262 124.82617478 593.51345853 126.99023438 593.46289062 C136.8923308 593.34774499 144.02193891 594.99590738 151.875 601.3125 C157.95407398 609.00074063 158.62947409 615.43462567 158.75 625 C158.77964844 626.15628906 158.80929687 627.31257812 158.83984375 628.50390625 C158.91006109 631.33600562 158.96299632 634.16730473 159 637 C176.39621723 637.65784015 192.69986283 635.02763298 206.5 623.5625 C216.12169019 614.35199315 223.47184183 601.22223255 224.16917992 587.72560883 C224.02019122 584.28650911 223.73286008 580.88878657 223.38745117 577.46386719 C223.22577916 575.48181109 223.0642432 573.49973973 222.90759933 571.51727992 C222.79644567 570.11998932 222.68242243 568.7229243 222.5656625 567.32609099 C213.28383594 455.91466781 213.28383594 455.91466781 238.76139259 424.19065475 C254.13017217 406.14097276 273.01552976 390.71684244 292.75627422 377.65412521 C296.60435036 375.0916009 299.81240252 372.39033405 303 369 C304.04490752 368.00429487 305.09367243 367.01260061 306.1484375 366.02734375 C307.22406912 364.99751153 308.29958887 363.96756247 309.375 362.9375 C309.93316406 362.42123047 310.49132812 361.90496094 311.06640625 361.37304688 C312.85553953 359.69498721 312.85553953 359.69498721 315 357 C314.89209713 352.81435971 311.96156508 350.63503812 309.1171875 347.859375 C308.62469513 347.37349915 308.13220276 346.88762329 307.62478638 346.38702393 C306.04847772 344.83407329 304.46240674 343.29159761 302.875 341.75 C301.31069312 340.22109126 299.74866056 338.68996287 298.18948364 337.15582275 C296.76068925 335.75148997 295.32559636 334.35357377 293.89013672 332.95605469 C292.33752795 331.42476305 290.92151994 329.90108505 289.56497192 328.1913147 C285.6324937 323.27268384 281.29864685 319.98043515 276.05181408 316.51834965 C254.28117222 302.08276724 228.81674429 282.67790189 223.28948975 255.76141357 C220.08416454 236.14405081 220.28706226 216.12543204 220.8125 196.3125 C220.83126851 195.58451297 220.85003702 194.85652594 220.86937428 194.10647869 C221.37477337 175.0352587 222.42663701 156.0145748 224 137 C223.3438417 137.00867316 222.68768339 137.01734632 222.0116415 137.02628231 C205.9833823 137.23291855 189.95696538 137.35530867 173.92749691 137.38603115 C166.17525904 137.40288261 158.42508648 137.44736089 150.67358398 137.55883789 C143.91047398 137.65602824 137.14942823 137.69938727 130.38561159 137.68036038 C126.80909655 137.67212044 123.23710257 137.68929175 119.66142082 137.77114677 C95.0671707 138.30480316 95.0671707 138.30480316 86.95347691 130.90671635 C84.60069938 128.39532779 82.48862648 125.79926752 80.4739809 123.01062965 C75.86209265 116.71963955 70.31712655 111.16787853 64.8112793 105.66601562 C64.13071976 104.98209747 63.45016022 104.29817932 62.74897766 103.59353638 C60.52666771 101.36182168 58.30069536 99.1338073 56.07421875 96.90625 C54.51952444 95.34833938 52.96490423 93.79035481 51.41035461 92.2322998 C48.16686133 88.98284416 44.92133358 85.73543625 41.67456055 82.48925781 C37.50523572 78.32003527 33.34287037 74.14393715 29.18217754 69.9661026 C25.9815283 66.75437364 22.77638386 63.54716055 19.56992531 60.3412323 C18.0320575 58.80218138 16.49581798 57.2615017 14.96121788 55.7191925 C12.82608091 53.57432301 10.68478045 51.43580482 8.54174805 49.29882812 C7.90538422 48.65684479 7.26902039 48.01486145 6.6133728 47.35342407 C2.90693338 42.90521649 2.90693338 42.90521649 -1.64607239 44.39718342 Z " fill="#275D46" transform="translate(627,220)"/>
<path d="M0 0 C1.42447161 -0.00657338 1.42447161 -0.00657338 2.87772042 -0.01327956 C6.07416768 -0.02668181 9.27058736 -0.03284972 12.46705627 -0.03897095 C14.75341924 -0.04687099 17.03978096 -0.05513988 19.32614136 -0.06375122 C26.84909369 -0.08998962 34.37205163 -0.10528386 41.89503479 -0.11953735 C44.48482326 -0.12489689 47.0746117 -0.1302744 49.6644001 -0.13566971 C60.43977026 -0.15730393 71.21513717 -0.17619048 81.99052334 -0.1872921 C84.78673748 -0.19022165 87.58295159 -0.19318333 90.37916565 -0.19619751 C91.07412528 -0.19694356 91.7690849 -0.19768961 92.48510391 -0.19845827 C103.72864003 -0.21109634 114.97201746 -0.24429817 126.21547949 -0.28599934 C137.76888769 -0.32849721 149.32219019 -0.35158928 160.8756786 -0.35721266 C167.35841035 -0.36086278 173.84087331 -0.37284808 180.3235302 -0.4053154 C186.42784124 -0.43544825 192.53172163 -0.44168888 198.63609123 -0.42993164 C200.87091174 -0.42971133 203.10575252 -0.43798132 205.34050369 -0.45558548 C219.84710895 -0.56359527 231.88232602 -0.31363162 242.95075417 10.25629044 C243.88416917 11.19560724 243.88416917 11.19560724 244.83644104 12.15390015 C245.83572663 13.11540796 245.83572663 13.11540796 246.85519981 14.09634018 C249.04944195 16.21650087 251.21484784 18.36306597 253.37623596 20.51669312 C254.18867264 21.32255859 255.00110931 22.12842407 255.83816528 22.95870972 C258.50063362 25.60161612 261.15920233 28.24839418 263.81690979 30.89608765 C264.73006769 31.80517002 265.64322559 32.7142524 266.58405495 33.65088272 C270.91504505 37.96322505 275.24399838 42.27759036 279.56986064 46.59507644 C284.53863759 51.5540682 289.51560175 56.50465059 294.49961394 61.44832885 C298.83850431 65.75332112 303.16627576 70.06933932 307.49027443 74.38928604 C309.32206614 76.21621768 311.15722531 78.03977958 312.99585533 79.85982895 C315.5683919 82.4079602 318.12794473 84.96849466 320.68482971 87.53231812 C321.43974701 88.27442535 322.19466431 89.01653259 322.97245789 89.78112793 C333.5834933 100.49710707 336.14158528 110.80434786 336.1105957 125.56947327 C336.11583238 126.80853623 336.12106906 128.04759919 336.12646443 129.32420951 C336.13883587 132.74718106 336.14230892 136.16994677 336.14186752 139.59292638 C336.1435213 143.29111107 336.1565982 146.98925883 336.1680603 150.68742371 C336.1908656 158.7660771 336.198826 166.84470416 336.20388675 174.92338538 C336.2071488 179.97227667 336.21367431 185.02116038 336.22088814 190.07004738 C336.24044778 204.0625048 336.25685586 218.0549552 336.25976467 232.04742718 C336.25995224 232.94202972 336.26013981 233.83663227 336.26033306 234.75834398 C336.2606993 236.57173494 336.261063 238.38512591 336.26142418 240.19851687 C336.26160699 241.09862489 336.2617898 241.99873292 336.26197815 242.92611694 C336.26224897 244.27793621 336.26224897 244.27793621 336.26252527 245.65706495 C336.26606596 260.25572352 336.29308465 274.8542345 336.33047604 289.4528419 C336.36860121 304.4586005 336.38792245 319.46428594 336.38822418 334.47009403 C336.38880778 342.8882602 336.39723695 351.30625026 336.42622185 359.72437096 C336.45079207 366.89301862 336.45798069 374.06142591 336.44297432 381.23010435 C336.43582849 384.88350213 336.43656107 388.53642579 336.45938492 392.18976974 C336.48395688 396.16119011 336.46927399 400.13194241 336.45117188 404.10340881 C336.46437184 405.2429332 336.47757181 406.38245758 336.49117178 407.55651301 C336.37558541 418.71264818 333.08938515 429.06468751 325.23097229 437.20858765 C320.94061405 440.69406628 314.55414246 445.15390015 308.83644104 445.15390015 C308.83660339 444.45790848 308.83676574 443.76191682 308.83693302 443.04483449 C308.84579206 401.80988282 308.82349667 360.57505071 308.76065075 319.34014293 C308.75313455 314.39085529 308.7458791 309.44156731 308.73878479 304.49227905 C308.73736804 303.50695004 308.73595129 302.52162103 308.7344916 301.50643356 C308.71216299 285.54461535 308.71096461 269.58286176 308.71755241 253.62103228 C308.72384082 237.24706457 308.70747465 220.87323296 308.67000496 204.49930632 C308.64759358 194.39273885 308.64292855 184.28648123 308.6608444 174.17990346 C308.67143259 167.25279225 308.66004845 160.32593605 308.63127951 153.39887731 C308.61532411 149.40005437 308.60915876 145.40183787 308.6290493 141.40301895 C308.64704521 137.74215204 308.63746089 134.08243306 308.60590221 130.42166753 C308.5962586 128.4696131 308.61616332 126.51748183 308.63710201 124.56551588 C308.64777931 117.31951347 308.64777931 117.31951347 304.97781372 111.37158585 C301.47036896 108.89546764 299.83575834 108.41401162 295.59083557 108.44442749 C293.76831772 108.43444229 293.76831772 108.43444229 291.90898132 108.42425537 C289.95881607 108.4567186 289.95881607 108.4567186 287.96925354 108.48983765 C286.60693245 108.48874228 285.24461053 108.48442578 283.88230896 108.47705078 C280.30446964 108.46367815 276.7276386 108.48241065 273.1499176 108.51150513 C267.43217777 108.55695236 261.71498985 108.57235771 255.99711227 108.55195999 C254.01192548 108.5523297 252.02679777 108.57870596 250.04179382 108.60565186 C242.13008447 108.6033685 236.0735897 108.33119672 230.26579285 102.60543823 C225.54973624 96.46360666 226.1930214 89.43159668 226.30519104 82.02108765 C226.30477016 80.65683609 226.30142266 79.29258262 226.29530334 77.92834473 C226.28146437 73.62825906 226.30604618 69.32887112 226.33644104 65.02890015 C226.37168079 60.03460636 226.39076034 55.04133622 226.36831665 50.04693985 C226.36770254 48.05831662 226.39713551 46.06975683 226.42713928 44.08135986 C226.59730287 36.80203681 226.59730287 36.80203681 223.61573792 30.41220093 C218.24524327 26.04843815 213.65737641 25.86538368 207.0037384 25.90666199 C206.11404098 25.90424757 205.22434356 25.90183316 204.30768561 25.89934558 C201.32663618 25.89370998 198.34580116 25.90237061 195.36476135 25.91098022 C193.22774192 25.90990734 191.09072278 25.90796856 188.95370483 25.90522766 C183.15037114 25.90037841 177.34711427 25.90803519 171.54378986 25.9181807 C165.4783976 25.926956 159.41300779 25.92520389 153.34761047 25.92481995 C143.16565157 25.92575657 132.98372246 25.93444187 122.80177307 25.9480896 C111.01320435 25.96383195 99.22466823 25.96908713 87.43608975 25.96835405 C76.11076227 25.96774478 64.78544544 25.97283982 53.46012115 25.98114586 C48.63236661 25.98468537 43.80461583 25.98651005 38.97686005 25.98703957 C33.30029281 25.98804042 27.62375319 25.99411581 21.94719505 26.0042057 C19.85773831 26.00713853 17.76827838 26.0083545 15.67881966 26.00777817 C12.8395863 26.00729117 10.00043156 26.01290642 7.16120911 26.02018738 C6.32319677 26.01863878 5.48518443 26.01709017 4.62177777 26.01549464 C0.92705827 25.6781602 0.92705827 25.6781602 -2.16355896 27.15390015 C-2.2577334 28.84257021 -2.28098687 30.53522246 -2.27708435 32.22651196 C-2.2770085 33.3325226 -2.27693266 34.43853325 -2.27685452 35.57805938 C-2.27169354 36.80837537 -2.26653257 38.03869137 -2.26121521 39.30628967 C-2.25904359 41.29809401 -2.25687229 43.28989834 -2.25471109 45.28170269 C-2.25137047 47.45372295 -2.24553995 49.6257242 -2.23901558 51.79773712 C-2.22513568 56.4430708 -2.2181348 61.08839958 -2.21224976 65.73374939 C-2.20560313 70.73410318 -2.19846313 75.73445409 -2.18906307 80.73480356 C-2.16591517 93.1380924 -2.15890324 105.54131696 -2.16184998 117.94462585 C-2.16203239 118.84054973 -2.16221481 119.73647361 -2.16240275 120.6595467 C-2.16393401 128.04024428 -2.16610423 135.42094166 -2.16830373 142.80163907 C-2.17021369 149.45576189 -2.17145897 156.10988448 -2.17185974 162.76400757 C-2.17192406 163.7128837 -2.17198838 164.66175984 -2.17205465 165.63938979 C-2.17221061 181.01274849 -2.14353901 196.38593387 -2.10512471 211.75923862 C-2.06646033 227.53208592 -2.06194932 243.30468639 -2.08839989 259.07755977 C-2.10357804 268.81204176 -2.09152537 278.54572022 -2.04475969 288.28010503 C-2.01518879 294.95171178 -2.01847182 301.62279246 -2.04772955 308.29439869 C-2.06362079 312.14570578 -2.06479196 315.99556022 -2.02679253 319.84674454 C-1.98597199 324.02113095 -2.01457526 328.19215839 -2.05003357 332.36659241 C-2.02702682 333.5857548 -2.00402008 334.80491719 -1.98031616 336.06102389 C-2.12928609 344.08102009 -2.12928609 344.08102009 -5.13160896 347.19541323 C-7.41628725 348.7345021 -9.68510222 349.95994269 -12.16355896 351.15390015 C-21.04203556 357.36883377 -25.79226786 366.74280304 -28.16355896 377.15390015 C-28.49355896 377.15390015 -28.82355896 377.15390015 -29.16355896 377.15390015 C-29.23222335 332.0822063 -29.28508687 287.01051799 -29.31675495 241.93878216 C-29.32050707 236.61782856 -29.32439004 231.29687507 -29.32835388 225.97592163 C-29.32914081 224.91661418 -29.32992774 223.85730673 -29.33073852 222.76589905 C-29.34379296 205.61303518 -29.36744702 188.46020146 -29.39501735 171.30735547 C-29.42307047 153.70737076 -29.43973503 136.10740184 -29.44582444 118.50739568 C-29.44994107 107.64698224 -29.46294389 96.78665405 -29.48730836 85.92626684 C-29.50316438 78.47921397 -29.50795961 71.03220518 -29.50406309 63.58513666 C-29.50214135 59.28837284 -29.50509047 54.99175801 -29.52117538 50.69502068 C-29.5358036 46.75862112 -29.53649244 42.82247037 -29.52625564 38.88605922 C-29.52499095 37.46463834 -29.52877177 36.04320175 -29.53820851 34.62181164 C-29.60728664 23.57137741 -28.82433876 15.1278651 -21.06980896 6.88046265 C-14.6820113 1.09479346 -8.39286514 0.00467525 0 0 Z " fill="#204F3B" transform="translate(496.16355895996094,392.8460998535156)"/>
<path d="M0 0 C3.36973636 1.31083763 5.61014074 3.98741841 8.08276367 6.53588867 C8.87650391 7.32479492 8.87650391 7.32479492 9.6862793 8.12963867 C12.65748383 11.14185104 14.97019152 14.04870797 17.02026367 17.78588867 C17.35026367 18.11588867 17.68026367 18.44588867 18.02026367 18.78588867 C19.27838867 18.76526367 20.53651367 18.74463867 21.83276367 18.72338867 C27.85602747 19.37428976 32.35435301 22.6962413 36.66479492 26.73120117 C40.13589805 31.2326981 39.97604973 34.78933244 39.44213867 40.29370117 C39.30291992 41.11612305 39.16370117 41.93854492 39.02026367 42.78588867 C39.55651367 43.01276367 40.09276367 43.23963867 40.64526367 43.47338867 C48.40589057 47.76215617 48.40589057 47.76215617 49.64477539 51.84301758 C49.93994753 54.293102 50.00383854 56.63111527 49.95776367 59.09838867 C49.95317139 59.95489014 49.9485791 60.8113916 49.94384766 61.69384766 C49.7527187 65.78526321 49.51615706 68.12080813 47.02807617 71.45776367 C45.40991864 72.70886311 43.74975648 73.90758331 42.05151367 75.04760742 C39.80686334 76.60680799 39.80686334 76.60680799 39.55151367 79.11791992 C39.56698242 80.37668945 39.56698242 80.37668945 39.58276367 81.66088867 C39.57703601 85.36096102 39.1818965 86.57644068 36.86791992 89.57495117 C27.52319439 98.8794555 27.52319439 98.8794555 22.02026367 99.22338867 C18.9097336 99.54458896 18.9097336 99.54458896 16.20776367 101.03588867 C14.95072513 102.83009899 14.95072513 102.83009899 13.78588867 105.02807617 C11.71430313 108.26378279 9.26969465 110.94158503 6.58276367 113.66088867 C6.10516602 114.17135742 5.62756836 114.68182617 5.13549805 115.20776367 C3.71166992 116.65307617 3.71166992 116.65307617 1.02026367 118.78588867 C-3.52776788 118.31073788 -6.00812677 115.16306908 -9.04223633 112.03588867 C-9.57139648 111.50995117 -10.10055664 110.98401367 -10.64575195 110.44213867 C-13.61695648 107.4299263 -15.92966418 104.52306938 -17.97973633 100.78588867 C-19.51038545 99.25523955 -21.04059954 99.74832411 -23.16723633 99.72338867 C-26.10827887 99.43532447 -27.52000185 99.23175645 -29.66333008 97.15307617 C-30.64204034 95.7579499 -31.58664864 94.33839811 -32.49926758 92.89916992 C-34.4330139 90.13886184 -36.78384398 88.4626023 -39.56176758 86.59838867 C-40.97973633 84.78588867 -40.97973633 84.78588867 -41.14379883 81.16088867 C-41.68693891 75.05423266 -46.27116927 71.74477331 -50.54223633 67.78588867 C-51.34854492 67.01116211 -52.15485352 66.23643555 -52.9855957 65.43823242 C-54.96871129 63.53725771 -56.96624965 61.65457743 -58.97973633 59.78588867 C-57.17649146 55.89710678 -54.68278486 53.15641364 -51.66723633 50.16088867 C-50.95664062 49.42612305 -50.95664062 49.42612305 -50.23168945 48.67651367 C-47.35618269 45.79707325 -44.8759508 43.99236674 -40.97973633 42.78588867 C-41.07254883 42.14522461 -41.16536133 41.50456055 -41.26098633 40.84448242 C-41.84140917 33.88977303 -41.84140917 33.88977303 -39.40942383 30.77416992 C-38.02025506 29.59892258 -36.59061064 28.47016755 -35.12817383 27.38745117 C-33.09214218 25.86968213 -31.62502636 24.32887871 -29.97973633 22.41088867 C-26.6792879 19.5229963 -26.6792879 19.5229963 -22.97973633 19.41088867 C-20.42903599 19.25717415 -19.3646767 19.16566899 -17.52270508 17.34838867 C-16.57971059 16.00047724 -15.65656498 14.63855102 -14.74926758 13.26635742 C-12.52715607 10.15147705 -10.02235095 7.45825408 -7.35473633 4.72338867 C-6.88704834 4.22210449 -6.41936035 3.72082031 -5.9375 3.2043457 C-2.50989568 -0.27144882 -2.50989568 -0.27144882 0 0 Z " fill="#B0955B" transform="translate(398.979736328125,517.214111328125)"/>
<path d="M0 0 C1.39295792 0.00382187 1.39295792 0.00382187 2.8140564 0.00772095 C8.2411242 0.02517583 13.66790193 0.05781625 19.0947876 0.10540771 C21.05844807 0.12228009 23.02214324 0.13502318 24.98583984 0.14697266 C49.58714745 0.3836394 85.01740546 2.51932986 103.375 21.125 C105.83824069 24.81986103 105.76491688 26.75793092 105.375 31.125 C104.34376431 32.81952 104.34376431 32.81952 102.375 34.125 C99.69394582 34.42187651 97.24441185 34.53402936 94.56227112 34.51268005 C93.75807029 34.51806559 92.95386947 34.52345113 92.12529892 34.52899987 C89.4213505 34.54334641 86.71788702 34.53615935 84.01391602 34.52905273 C82.07909754 34.53475281 80.14428243 34.54171566 78.20947266 34.54985046 C72.94710462 34.56783718 67.68490283 34.56660313 62.42251325 34.56090808 C58.03363776 34.55782413 53.64479458 34.56389982 49.25592369 34.56994683 C38.9042312 34.5840086 28.55262121 34.58241707 18.20092773 34.57104492 C7.5120935 34.55956207 -3.17648989 34.5736385 -13.86529106 34.6004414 C-23.03393368 34.62257386 -32.20249741 34.62924131 -41.37116486 34.62336498 C-46.85089723 34.61998832 -52.33046878 34.62245744 -57.81017876 34.63961601 C-62.96237002 34.65504396 -68.11418873 34.65117581 -73.26636505 34.63231087 C-75.15944152 34.62861344 -77.05254534 34.63176685 -78.94559669 34.64219666 C-81.52592757 34.65532974 -84.10501107 34.64392816 -86.68528748 34.62620544 C-87.81451611 34.64061295 -87.81451611 34.64061295 -88.96655744 34.65531152 C-92.42241955 34.60632304 -94.30852385 34.36012143 -97.11732578 32.27336216 C-98.625 30.125 -98.625 30.125 -98.6875 27.25 C-96.18823529 19.89922145 -90.30195879 15.61437112 -83.625 12.125 C-73.88986996 8.15468199 -63.95891552 5.95659026 -53.625 4.125 C-52.23790814 3.85608412 -50.85119586 3.58520392 -49.46484375 3.3125 C-48.03920754 3.04090422 -46.61342891 2.77005482 -45.1875 2.5 C-43.93066406 2.26023437 -42.67382812 2.02046875 -41.37890625 1.7734375 C-27.73724393 -0.33073038 -13.76285921 -0.04512918 0 0 Z " fill="#235540" transform="translate(625.625,833.875)"/>
<path d="M0 0 C7.33617275 3.22075877 12.53387609 10.47565076 17.65234375 16.43359375 C18.40849619 17.31248398 19.18017851 18.18017851 20 19 C21.670625 19.061875 21.670625 19.061875 23.375 19.125 C29.44655968 19.76411154 35.70947986 23.70947986 40 28 C40.02657212 30.22910565 40.04619443 32.45829562 40.0625 34.6875 C40.28618388 39.88140039 40.28618388 39.88140039 42.80859375 44.2265625 C44.81565426 45.67908757 46.79262262 46.88203947 49 48 C51.59635803 50.59635803 50.48830626 57.28258328 50.53662109 60.76318359 C50.45185132 65.6863512 50.31886588 69.00777035 46.625 72.625 C44.79338467 73.98928961 43.03959787 74.98020107 41 76 C40.8726619 77.85084448 40.82410941 79.70731659 40.8125 81.5625 C40.43883426 87.47769923 38.91215689 90.31837794 34.7890625 94.4765625 C30.55258903 98.08403991 27.72831415 98.31164027 22.375 98.55859375 C19.59558106 99.07516339 18.8424121 99.9437365 17 102 C16.34 102 15.68 102 15 102 C14.88825439 102.59707764 14.77650879 103.19415527 14.66137695 103.80932617 C13.57161836 107.41892522 10.79744071 109.71488486 8.1875 112.3125 C7.65318359 112.87517578 7.11886719 113.43785156 6.56835938 114.01757812 C4.98046875 115.61328125 4.98046875 115.61328125 2 118 C-3.52061432 117.34896825 -7.84012508 113.24693769 -11.46875 109.296875 C-17.19731653 101.41417808 -14.82914574 89.16312345 -14 80 C-9.23925781 79.79003906 -9.23925781 79.79003906 -7.0859375 81.6796875 C-6.52132813 82.40414062 -5.95671875 83.12859375 -5.375 83.875 C-3.27675594 86.52391444 -1.85791318 88.09472455 1 90 C1.76570313 89.02546875 1.76570313 89.02546875 2.546875 88.03125 C8.41439735 81.28984135 8.41439735 81.28984135 13.26953125 80.40234375 C16.22656491 80.4339135 19.07137795 80.59861525 22 81 C21.9071875 80.14277344 21.814375 79.28554688 21.71875 78.40234375 C21.13586933 69.16993033 21.13586933 69.16993033 23.7109375 65.68359375 C25.875 63.875 25.875 63.875 28.0546875 62.3671875 C30.27182876 60.98419225 30.27182876 60.98419225 32 58 C31.34 58 30.68 58 30 58 C28.29006566 56.3777546 26.62652316 54.70586575 25 53 C24.18402344 52.38125 24.18402344 52.38125 23.3515625 51.75 C21.26349197 49.04637111 21.71310616 46.65875915 21.8125 43.3125 C21.85310547 41.54326172 21.85310547 41.54326172 21.89453125 39.73828125 C21.92933594 38.83464844 21.96414063 37.93101562 22 37 C20.85724609 37.15662109 20.85724609 37.15662109 19.69140625 37.31640625 C14.7369741 37.70608069 11.35440848 37.96905377 7.19921875 34.99609375 C4.99379742 32.7484634 2.94487042 30.47528963 1 28 C-3.73317721 31.78720038 -3.73317721 31.78720038 -7.625 36.375 C-8.07875 36.91125 -8.5325 37.4475 -9 38 C-11.5859375 38.1015625 -11.5859375 38.1015625 -14 38 C-16.43415638 16.29588477 -16.43415638 16.29588477 -10.8828125 9.2890625 C-7.55073349 5.79171374 -3.90719799 2.83072507 0 0 Z " fill="#AF965C" transform="translate(398,670)"/>
<path d="M0 0 C1.17240234 -0.01998047 2.34480469 -0.03996094 3.55273438 -0.06054688 C14.20026464 -0.05466751 24.99762373 1.73296221 33.41015625 8.72265625 C38.11211767 13.60246964 41.20612371 19.03756766 41.16015625 25.88671875 C41.15532227 27.15805664 41.15532227 27.15805664 41.15039062 28.45507812 C41.13782227 29.77668945 41.13782227 29.77668945 41.125 31.125 C41.12048828 32.01767578 41.11597656 32.91035156 41.11132812 33.83007812 C41.09954983 36.03261987 41.08310164 38.23502599 41.0625 40.4375 C40.42151367 40.40720703 39.78052734 40.37691406 39.12011719 40.34570312 C12.05563958 39.10113924 -14.9548628 38.64414329 -41.9375 41.4375 C-42.65499659 19.77973271 -42.65499659 19.77973271 -34.9375 10.4375 C-25.09732918 0.70201184 -13.28091011 -0.08004932 0 0 Z " fill="#22513D" transform="translate(629.9375,779.5625)"/>
<path d="M0 0 C1.04219901 -0.01064158 1.04219901 -0.01064158 2.10545254 -0.02149814 C4.43357607 -0.0391004 6.76003485 -0.02096433 9.08813477 -0.00291443 C10.75709799 -0.00805245 12.4260558 -0.01533285 14.09500122 -0.02459717 C18.62815001 -0.04313447 23.16071175 -0.0301581 27.69383621 -0.01050687 C32.43522085 0.00586182 37.17656778 -0.00293078 41.91796875 -0.00802612 C49.88071079 -0.01254908 57.84321807 0.00333524 65.8059082 0.03126526 C75.0150628 0.0633181 84.22379396 0.0633021 93.43297863 0.04605049 C102.28782148 0.0301929 111.14250893 0.036914 119.99734497 0.0539875 C123.76763032 0.06086448 127.53779133 0.05981894 131.30807495 0.05244255 C135.74708439 0.04478771 140.1856113 0.05687938 144.62453842 0.08429146 C146.25475507 0.09118484 147.88501671 0.09126305 149.51523209 0.08407593 C151.73872258 0.07540198 153.96071682 0.09129963 156.18408203 0.11352539 C157.42883804 0.11633231 158.67359406 0.11913923 159.95606995 0.12203121 C163.6788054 0.72289513 164.85982877 1.64032292 167.09204102 4.62818909 C167.71704102 7.56568909 167.71704102 7.56568909 167.09204102 10.62818909 C163.90765425 13.87718841 162.24951319 15.41079531 157.7568264 16.25460148 C156.53603701 16.25518779 155.31524761 16.2557741 154.0574646 16.25637817 C153.0310783 16.26701975 153.0310783 16.26701975 151.98395693 16.27787632 C149.70348625 16.29540315 147.42473216 16.27738146 145.14428711 16.2592926 C143.50458503 16.26443342 141.86488847 16.27171593 140.22520447 16.28097534 C135.78100947 16.29947414 131.33741514 16.28656175 126.89324522 16.26688504 C122.24129261 16.25049013 117.58937779 16.25931235 112.93740845 16.2644043 C105.12785248 16.26892341 97.31853618 16.2530645 89.5090332 16.22511292 C80.47819803 16.19303937 71.44779456 16.19308599 62.41692865 16.21032768 C53.72866865 16.22618457 45.04056705 16.21946609 36.352314 16.20239067 C32.65459608 16.19551544 28.95700494 16.19655738 25.25928879 16.20393562 C20.90725132 16.21159028 16.55570602 16.1994995 12.20375252 16.17208672 C10.60578561 16.16519399 9.00777281 16.16511443 7.40980721 16.17230225 C5.23020367 16.18097752 3.05212593 16.1650768 0.87265015 16.14285278 C-0.3473852 16.14004586 -1.56742054 16.13723894 -2.82442665 16.13434696 C-6.51536765 15.52848373 -7.66844791 14.56839176 -9.90795898 11.62818909 C-10.90795898 8.69068909 -10.90795898 8.69068909 -10.90795898 5.62818909 C-7.92716776 0.5872352 -5.72537861 0.00269679 0 0 Z " fill="#22523F" transform="translate(593.907958984375,673.3718109130859)"/>
<path d="M0 0 C1.02170632 -0.01041829 1.02170632 -0.01041829 2.06405318 -0.02104706 C4.34582071 -0.03933949 6.62655113 -0.02904736 8.90835571 -0.01878357 C10.54451781 -0.02584105 12.18067338 -0.03458535 13.81681824 -0.04489136 C18.26116411 -0.06741678 22.70515439 -0.06443799 27.14953566 -0.05556989 C30.85979053 -0.05046329 34.56997838 -0.05775004 38.28022635 -0.06504196 C47.03409585 -0.08205163 55.78779109 -0.07846516 64.54165649 -0.06175232 C73.57131922 -0.04483574 82.60049835 -0.06065664 91.63010824 -0.0929752 C99.38312112 -0.11967291 107.13598349 -0.12694644 114.88903773 -0.11846012 C119.51931843 -0.11353068 124.14930826 -0.11574707 128.77955246 -0.13624763 C133.13490486 -0.15460724 137.48956217 -0.14864301 141.84487724 -0.12404823 C143.44201371 -0.11904087 145.03920315 -0.12252828 146.63629723 -0.13519669 C148.81993334 -0.15114524 151.00128553 -0.13616424 153.18481445 -0.11352539 C154.40560385 -0.11293908 155.62639324 -0.11235277 156.88417625 -0.1117487 C161.37686304 0.73205748 163.0350041 2.26566437 166.21939087 5.5146637 C166.84439087 8.5771637 166.84439087 8.5771637 166.21939087 11.5146637 C163.98717862 14.50252987 162.80615526 15.41995765 159.0834198 16.02082157 C157.83866379 16.02362849 156.59390778 16.02643541 155.31143188 16.02932739 C154.61663255 16.03627292 153.92183321 16.04321845 153.20597935 16.05037445 C150.87809196 16.06866935 148.55122085 16.05837407 146.22329712 16.04811096 C144.55433387 16.05516818 142.88537702 16.06391237 141.21643066 16.07421875 C136.68338102 16.09674355 132.15068001 16.09376605 127.61759567 16.08489728 C123.83507821 16.07979204 120.05262654 16.08707608 116.27011585 16.09436935 C107.34852679 16.11137782 98.42710873 16.10779257 89.50552368 16.09107971 C80.29632505 16.07415138 71.08760016 16.09000049 61.87845325 16.12230259 C53.97515507 16.14897577 46.07200457 16.15628083 38.16866589 16.14778751 C33.44678928 16.14285236 28.72519788 16.1451057 24.00335693 16.16557503 C19.56429575 16.18389697 15.12591767 16.17801665 10.68689346 16.15337563 C9.05666573 16.14835685 7.42638626 16.15188514 5.7961998 16.16452408 C3.57245922 16.18040267 1.35098258 16.16555763 -0.87265015 16.14285278 C-2.11740616 16.14226647 -3.36216217 16.14168016 -4.64463806 16.14107609 C-7.78060913 15.5146637 -7.78060913 15.5146637 -10.21235657 13.16680813 C-11.78060913 10.5146637 -11.78060913 10.5146637 -11.78060913 7.4521637 C-9.63405274 1.14665429 -6.38743669 0.0146955 0 0 Z " fill="#21503D" transform="translate(594.7806091308594,564.4853363037109)"/>
<path d="M0 0 C0.67790842 -0.00694553 1.35581684 -0.01389106 2.05426794 -0.02104706 C4.31911407 -0.03930032 6.58291068 -0.02905835 8.84779358 -0.01878357 C10.47425113 -0.02584296 12.1007021 -0.03458807 13.72714233 -0.04489136 C18.14043916 -0.06739344 22.5533775 -0.06444371 26.96670985 -0.05556989 C30.65216174 -0.05045965 34.33754629 -0.05775288 38.02299124 -0.06504196 C46.7179071 -0.08204369 55.41264748 -0.07847252 64.1075592 -0.06175232 C73.07532789 -0.04483032 82.04260985 -0.06066589 91.01032537 -0.0929752 C98.71240366 -0.11967253 106.41433045 -0.12694673 114.11645037 -0.11846012 C118.71541779 -0.11353134 123.31409234 -0.11574377 127.91302299 -0.13624763 C132.23802166 -0.15460708 136.56232035 -0.14864326 140.88728142 -0.12404823 C142.47313081 -0.11904112 144.05903355 -0.12252763 145.64484024 -0.13519669 C147.81310163 -0.15114657 149.97906332 -0.13616327 152.1472168 -0.11352539 C153.35933303 -0.11293908 154.57144926 -0.11235277 155.82029629 -0.1117487 C160.29786372 0.73388577 161.95801917 2.2794161 165.13710022 5.5146637 C165.82460022 8.5771637 165.82460022 8.5771637 165.13710022 11.5146637 C162.42455777 14.28561396 160.7543422 15.41833832 156.89369869 16.02082157 C155.65723882 16.02362849 154.42077894 16.02643541 153.14685059 16.02932739 C152.45528038 16.03627292 151.76371017 16.04321845 151.05118328 16.05037445 C148.74021748 16.06863096 146.43027984 16.05838483 144.11927795 16.04811096 C142.46001925 16.05517005 140.80076699 16.06391503 139.14152527 16.07421875 C134.63952471 16.09672067 130.13787556 16.09377166 125.63584018 16.08489728 C121.8781257 16.07978848 118.12047733 16.08707886 114.36276966 16.09436935 C105.50013425 16.11137002 96.63767102 16.10779978 87.77503967 16.09107971 C78.62773512 16.07414598 69.48090733 16.09000965 60.33365482 16.12230259 C52.48129124 16.14897524 44.62907629 16.15628117 36.77667195 16.14778751 C32.08610866 16.14285297 27.39583248 16.14510268 22.7053051 16.16557503 C18.29659772 16.18389656 13.88857814 16.17801721 9.47990799 16.15337563 C7.86096734 16.14835702 6.24197458 16.15188471 4.62307549 16.16452408 C2.41470972 16.18040349 0.2086234 16.16555713 -1.99963379 16.14285278 C-3.85375806 16.14197332 -3.85375806 16.14197332 -5.74533939 16.14107609 C-8.86289978 15.5146637 -8.86289978 15.5146637 -11.28794765 13.16680813 C-12.86289978 10.5146637 -12.86289978 10.5146637 -12.92539978 7.4521637 C-10.64399671 1.14475521 -6.26933312 0.01452253 0 0 Z " fill="#21513E" transform="translate(595.8628997802734,618.4853363037109)"/>
<path d="M0 0 C1.16166687 -0.0087616 2.32333374 -0.01752319 3.52020264 -0.02655029 C7.3549957 -0.04853262 11.18863298 -0.03399394 15.0234375 -0.01708984 C17.69093252 -0.02045828 20.35839262 -0.02530365 23.02587891 -0.03158569 C28.61438487 -0.04067063 34.20255995 -0.02872516 39.79101562 -0.00488281 C46.24305805 0.02232682 52.6943104 0.01351179 59.14633369 -0.01401484 C64.69561567 -0.03673832 70.24466043 -0.03989036 75.79397392 -0.02682149 C79.10411562 -0.01904448 82.41380662 -0.01991264 85.72393799 -0.03450394 C89.41545998 -0.04720537 93.1054659 -0.02784158 96.796875 0 C98.43351105 -0.01518173 98.43351105 -0.01518173 100.10321045 -0.03067017 C108.36678295 0.08476819 108.36678295 0.08476819 112.078125 3.02896118 C115.29646927 6.66022302 115.14373413 8.68848925 114.8671875 13.33447266 C114.22869001 16.48439361 113.03764873 17.86162388 110.3984375 19.64697266 C107.94892773 20.87172754 106.3375478 20.78630665 103.59794617 20.80760193 C102.07749191 20.82267036 102.07749191 20.82267036 100.52632141 20.83804321 C99.40992783 20.84387421 98.29353424 20.8497052 97.14331055 20.85571289 C95.38464661 20.87038857 95.38464661 20.87038857 93.5904541 20.88536072 C89.69704323 20.91536125 85.80363407 20.93701265 81.91015625 20.95556641 C81.24780228 20.95886373 80.58544831 20.96216105 79.903023 20.96555829 C73.65667251 20.99633837 67.4103172 21.02304644 61.16391277 21.03997707 C53.17371046 21.06188806 45.18417977 21.1038676 37.19424599 21.17341465 C31.57634335 21.22065469 25.95862192 21.24491048 20.34052688 21.25217396 C16.98491488 21.25713031 13.63005976 21.27220627 10.27466393 21.31191826 C6.52982217 21.35066516 2.78674133 21.35188815 -0.95825195 21.34399414 C-2.62373329 21.37399506 -2.62373329 21.37399506 -4.32286072 21.40460205 C-11.64664899 21.33514618 -11.64664899 21.33514618 -14.40390587 19.3480854 C-16.88108036 16.48663526 -18.30942942 13.87950881 -18.2890625 10.08447266 C-18.31355469 9.36130859 -18.33804688 8.63814453 -18.36328125 7.89306641 C-15.50158234 -0.54527653 -7.44332614 -0.06904564 0 0 Z " fill="#23523E" transform="translate(555.6015625,496.35302734375)"/>
<path d="M0 0 C1.10865985 0.91122727 2.21172219 1.82926659 3.3125 2.75 C4.23482422 3.51570312 4.23482422 3.51570312 5.17578125 4.296875 C7 6 7 6 8.34375 8.15625 C9.92766146 10.28515263 9.92766146 10.28515263 12.91796875 10.609375 C13.99691406 10.65578125 15.07585937 10.7021875 16.1875 10.75 C17.27417969 10.80671875 18.36085938 10.8634375 19.48046875 10.921875 C20.31191406 10.94765625 21.14335937 10.9734375 22 11 C21.96777344 11.76183594 21.93554688 12.52367187 21.90234375 13.30859375 C21.97684438 19.9391502 22.73911453 23.50977635 27.5625 28.25 C29.01642459 29.52927218 30.48776655 30.79021324 32 32 C31.06409496 33.1055189 30.12620142 34.20935453 29.1875 35.3125 C28.66542969 35.92738281 28.14335937 36.54226563 27.60546875 37.17578125 C26 39 26 39 24.34375 40.34375 C22.33505158 42.81958759 22.48111009 45.05135238 22.3125 48.1875 C22.24675781 49.27417969 22.18101562 50.36085938 22.11328125 51.48046875 C22.07589844 52.31191406 22.03851563 53.14335938 22 54 C21.21496094 53.99097656 20.42992187 53.98195313 19.62109375 53.97265625 C12.00170476 54.17097941 12.00170476 54.17097941 5.9375 58.375 C4.93985001 59.56811831 3.95945674 60.77595769 3 62 C2.0126786 63.01251986 1.01645136 64.01672658 0 65 C-0.49886719 64.28972656 -0.99773437 63.57945312 -1.51171875 62.84765625 C-5.98665854 57.04838062 -5.98665854 57.04838062 -12.4921875 54.11328125 C-15.69402597 53.89959181 -18.79664136 53.83166276 -22 54 C-22.01417969 53.19175781 -22.02835937 52.38351562 -22.04296875 51.55078125 C-22.20982255 44.77181794 -22.20982255 44.77181794 -25.375 39 C-26.24125 38.34 -27.1075 37.68 -28 37 C-29.02813611 35.68824014 -30.04084432 34.3630107 -31 33 C-29.81103862 29.78980429 -28.94924844 28.96892762 -25.9375 27.125 C-23.24936529 25.07783171 -22.99757156 23.98640385 -22.38671875 20.56640625 C-22.14856321 17.03672782 -22.00957315 13.53727929 -22 10 C-21.16597656 10.03222656 -20.33195312 10.06445312 -19.47265625 10.09765625 C-12.58138686 10.02661224 -8.63145774 9.47623009 -3.6875 4.4375 C-2.42602705 2.98578697 -1.18455497 1.51512846 0 0 Z " fill="#FCF9F4" transform="translate(398,544)"/>
<path d="M0 0 C6.38450911 4.06776741 10.0284365 9.41843329 11.77734375 16.76953125 C12.93118074 24.46177783 10.01850447 30.38537388 5.77734375 36.76953125 C0.31131953 42.31014059 -5.67849351 45.04700617 -13.47265625 45.20703125 C-20.8686233 45.07331885 -25.55729944 43.0884917 -31 38.16015625 C-35.7850125 33.05926273 -37.88184024 27.78818736 -38.66015625 20.89453125 C-38.34110168 14.12791552 -35.62616447 7.89408997 -31.09765625 2.89453125 C-21.3431742 -5.94089896 -11.08898474 -5.97099178 0 0 Z " fill="#22513D" transform="translate(643.22265625,723.23046875)"/>
<path d="M0 0 C5.93353499 3.70341385 10.94561397 9.25481066 13.171875 15.93359375 C13.99810402 24.45555593 13.61999139 31.10620739 8.171875 37.93359375 C2.82607947 43.96916935 -3.40233222 46.45940167 -11.328125 47.30859375 C-19.862149 46.39423404 -26.11890468 43.45657172 -31.828125 36.93359375 C-35.47650218 31.18687247 -37.37321492 25.8017268 -36.828125 18.93359375 C-34.95629747 11.90860249 -31.83098905 6.19551418 -25.828125 1.93359375 C-18.06451026 -2.03718146 -8.31505596 -3.13537331 0 0 Z " fill="#21503D" transform="translate(521.828125,753.06640625)"/>
<path d="M0 0 C5.67154304 3.98443846 10.3025248 8.09693418 12 15 C12.8401862 22.44578804 12.72195897 28.67477489 8.546875 35.06640625 C4.06947567 40.66315541 -0.95197949 44.37353373 -8 46 C-15.7605964 46.73910442 -22.68098805 45.1791796 -28.8125 40.1875 C-35.13040798 34.26537744 -37.06739151 28.7288491 -37.4375 20.25 C-37.37350649 12.81761091 -34.43318155 8.77366237 -29.58203125 3.44140625 C-21.45750142 -4.22796785 -9.67665791 -4.83832896 0 0 Z " fill="#22513E" transform="translate(762,754)"/>
<path d="M0 0 C2.26028807 22.88374486 2.26028807 22.88374486 -2.89453125 29.5546875 C-5.96374591 32.79467499 -9.33361223 35.46676779 -13 38 C-10.59436787 41.82738775 -8.31252179 44.88694278 -4.8125 47.75 C-1.09305994 50.81388013 -1.09305994 50.81388013 0 53 C0.08449628 54.7404417 0.10723024 56.48409722 0.09765625 58.2265625 C0.09443359 59.2578125 0.09121094 60.2890625 0.08789062 61.3515625 C0.07532227 62.97191406 0.07532227 62.97191406 0.0625 64.625 C0.05798828 65.71296875 0.05347656 66.8009375 0.04882812 67.921875 C0.03701776 70.61463789 0.02054778 73.30729188 0 76 C-5.67026505 75.79359937 -8.54339833 71.99963324 -12.26953125 68.19140625 C-13.29103523 67.1685276 -13.29103523 67.1685276 -14.33317566 66.12498474 C-15.76748363 64.68464374 -17.19693663 63.23945396 -18.62182617 61.78979492 C-20.81132453 59.56369512 -23.01649658 57.35410588 -25.22460938 55.14648438 C-26.61553264 53.74573367 -28.00553908 52.34407186 -29.39453125 50.94140625 C-30.05693314 50.27677872 -30.71933502 49.61215118 -31.40180969 48.92738342 C-32.00631454 48.31011887 -32.6108194 47.69285431 -33.23364258 47.05688477 C-33.76927322 46.51363052 -34.30490387 45.97037628 -34.85676575 45.41065979 C-36 44 -36 44 -36 42 C-36.66 42 -37.32 42 -38 42 C-38 41.34 -38 40.68 -38 40 C-38.66 40 -39.32 40 -40 40 C-39.53051876 35.77466887 -36.89449867 33.79807947 -34 31 C-32.90110072 29.90040669 -31.80464347 28.7983693 -30.71020508 27.69433594 C-27.44759007 24.41398617 -24.18197846 21.13663782 -20.9152832 17.86035156 C-19.50717085 16.44717112 -18.09995158 15.03310027 -16.69360352 13.61816406 C-14.65874523 11.57122876 -12.62072043 9.52749395 -10.58203125 7.484375 C-9.95182571 6.84900818 -9.32162018 6.21364136 -8.6723175 5.559021 C-7.79581795 4.68240814 -7.79581795 4.68240814 -6.90161133 3.78808594 C-6.13147453 3.01461823 -6.13147453 3.01461823 -5.34577942 2.2255249 C-3.54377091 0.58453807 -2.45599911 0 0 0 Z " fill="#B2985E" transform="translate(447,464)"/>
<path d="M0 0 C2.54599824 2.54599824 1.84386221 8.83273275 1.96289062 12.33911133 C1.81466857 18.32357661 0.49182909 21.65624246 -3.65185547 25.98339844 C-6.34446473 28.46614779 -9.0901348 30.77363336 -12 33 C-10.90838378 35.91316859 -9.9140975 37.06565221 -7.3984375 38.98828125 C-2.9941286 42.37402259 0.45957419 45.08716155 1.51220703 50.76074219 C1.97478178 57.52012905 1.60750956 64.25961772 1 71 C-3.19043394 70.28657797 -5.22592279 69.34215425 -8.375 66.4375 C-9.08398438 65.79683594 -9.79296875 65.15617188 -10.5234375 64.49609375 C-12.51049936 62.49336106 -14.33333916 60.47216507 -16.1640625 58.33203125 C-18.93146732 55.13000434 -21.83398268 52.14654907 -24.875 49.203125 C-25.71417969 48.38972656 -26.55335938 47.57632813 -27.41796875 46.73828125 C-29.16334886 45.05627349 -30.9161805 43.38196913 -32.67578125 41.71484375 C-33.50464844 40.90660156 -34.33351563 40.09835937 -35.1875 39.265625 C-35.94417969 38.54149414 -36.70085937 37.81736328 -37.48046875 37.07128906 C-39 35 -39 35 -38.77220154 33.0700531 C-37.89842236 30.72769918 -36.93209668 29.56336857 -35.16430664 27.80786133 C-34.570215 27.21076859 -33.97612335 26.61367584 -33.36402893 25.99848938 C-32.71925095 25.3660582 -32.07447296 24.73362701 -31.41015625 24.08203125 C-30.7504332 23.42418137 -30.09071014 22.76633148 -29.41099548 22.08854675 C-28.01650552 20.7007742 -26.61842486 19.31660173 -25.21704102 17.93579102 C-23.06720978 15.81714147 -20.92825764 13.68798205 -18.79101562 11.55664062 C-17.43551741 10.2103114 -16.07941786 8.86458728 -14.72265625 7.51953125 C-14.0799025 6.88102737 -13.43714874 6.2425235 -12.7749176 5.58467102 C-12.1776738 4.99703476 -11.58042999 4.4093985 -10.96508789 3.80395508 C-10.43959854 3.28529373 -9.91410919 2.76663239 -9.37269592 2.23225403 C-6.41465152 -0.42314989 -3.8453011 -0.16362983 0 0 Z " fill="#AE945B" transform="translate(446,620)"/>
<path d="M0 0 C0.99 0.33 1.98 0.66 3 1 C5.26208043 21.8887735 5.26208043 21.8887735 0.140625 28.3515625 C-2.96526993 31.59331039 -6.4284583 34.29169945 -10 37 C-10.33 37.66 -10.66 38.32 -11 39 C-10.34 39 -9.68 39 -9 39 C-7.44921875 40.57421875 -7.44921875 40.57421875 -5.6875 42.6875 C-3.63306553 45.13897124 -1.85017181 47.11399033 0.7109375 49.0625 C4.21038829 53.55326279 3.54193592 57.79544856 3.3125 63.3125 C3.28994141 64.33923828 3.26738281 65.36597656 3.24414062 66.42382812 C3.18537575 68.9507179 3.10327849 71.47460255 3 74 C0.09494298 74.25769641 -1.48625216 74.3536954 -3.93000793 72.67126465 C-4.54067612 72.04949341 -5.1513443 71.42772217 -5.78051758 70.78710938 C-6.48086624 70.08638306 -7.1812149 69.38565674 -7.90278625 68.66369629 C-9.01245003 67.51532288 -9.01245003 67.51532288 -10.14453125 66.34375 C-10.91431808 65.56688843 -11.68410492 64.79002686 -12.47721863 63.98962402 C-14.93428254 61.50456183 -17.37340146 59.00268547 -19.8125 56.5 C-21.47475879 54.81266577 -23.13815694 53.12645315 -24.80273438 51.44140625 C-28.88180184 47.30719696 -32.94626756 43.1590459 -37 39 C-35.60919475 35.86261846 -33.98977796 33.74524719 -31.56005859 31.33300781 C-30.85948334 30.63258362 -30.15890808 29.93215942 -29.43710327 29.21051025 C-28.68184357 28.46557312 -27.92658386 27.72063599 -27.1484375 26.953125 C-26.37440582 26.18192322 -25.60037415 25.41072144 -24.80288696 24.6161499 C-22.33158077 22.15603144 -19.85340817 19.70296152 -17.375 17.25 C-15.69745948 15.58249106 -14.02037055 13.91452768 -12.34375 12.24609375 C-8.23439081 8.1587763 -4.11937353 4.07722304 0 0 Z " fill="#AF955A" transform="translate(444,767)"/>
<path d="M0 0 C4.96678789 38.62500994 4.96678789 38.62500994 -4.53321838 51.20722961 C-11.58958879 59.47491331 -20.01078293 66.88970237 -29 73 C-29.66 73 -30.32 73 -31 73 C-35.10862257 33.53615344 -35.10862257 33.53615344 -27.3604126 22.71218872 C-22.33336103 16.64551453 -16.26581099 11.65359583 -9.88427734 7.07250977 C-7.72503643 5.52097801 -5.71895076 3.95331922 -3.69775391 2.23803711 C-1 0 -1 0 0 0 Z " fill="#AF955A" transform="translate(448,395)"/>
<path d="M0 0 C3.29110633 2.10070617 4.8333853 3.75007795 7 7 C7.75382467 11.60183667 7.39969844 15.1698571 5.375 19.375 C2.65750127 22.37855123 0.85562442 23.7395074 -3 25 C-7.78659166 25 -10.66993055 24.60652978 -14.4375 21.625 C-18.1845071 17.78660249 -18.40178685 14.42868785 -18.3515625 9.2890625 C-17.74498198 5.33954932 -15.89540181 3.69798805 -13 1 C-8.63622703 -1.69024354 -4.84469766 -1.21117442 0 0 Z " fill="#285D47" transform="translate(556,615)"/>
<path d="M0 0 C2.88303492 3.0526252 4.05995331 5.1493744 4.19140625 9.39453125 C3.95825244 13.65488722 3.50755888 15.76404683 0.8125 19.1875 C-4.53643187 23.29249423 -4.53643187 23.29249423 -9.8125 23.125 C-13.75669753 22.50803055 -16.02081412 21.10418588 -18.875 18.25 C-21.71035784 13.99696324 -21.63589759 10.24241992 -20.875 5.25 C-19.19817036 1.84783738 -16.78218095 -0.18607671 -13.5625 -2.1875 C-8.49957814 -3.24718132 -4.42633088 -2.69428836 0 0 Z " fill="#285E47" transform="translate(558.875,562.75)"/>
<path d="M0 0 C3.05936746 3.05936746 4.0783606 4.55599936 4.4375 8.9375 C4.32663349 12.95825862 3.3451489 15.71548562 1.125 19.125 C-2.79861693 22.76279053 -6.0885452 22.62773601 -11.2421875 22.4765625 C-14.85299234 21.99440755 -16.54509725 20.90585167 -18.875 18.125 C-21.21399255 14.11529848 -21.74689371 9.67130292 -20.875 5.125 C-19.12215296 1.82935783 -16.73807356 -0.33849482 -13.5625 -2.3125 C-8.45706904 -3.38107857 -4.38454381 -2.85948509 0 0 Z " fill="#295F48" transform="translate(558.875,670.875)"/>
<path d="M0 0 C2.59594886 1.15265098 4.14613349 2.63944355 6.15039062 4.65234375 C6.90449219 5.40708984 7.65859375 6.16183594 8.43554688 6.93945312 C9.60150391 8.12958008 9.60150391 8.12958008 10.79101562 9.34375 C11.98017578 10.52807617 11.98017578 10.52807617 13.19335938 11.73632812 C19.04101562 17.63934085 19.04101562 17.63934085 19.04101562 19.90625 C7.49101562 19.90625 -4.05898438 19.90625 -15.95898438 19.90625 C-15.95898438 13.14662909 -15.95898438 13.14662909 -13.03710938 10.22265625 C-12.42351562 9.60583984 -11.80992187 8.98902344 -11.17773438 8.35351562 C-10.52804687 7.73154297 -9.87835938 7.10957031 -9.20898438 6.46875 C-8.25765625 5.49518555 -8.25765625 5.49518555 -7.28710938 4.50195312 C-2.57838042 -0.12339208 -2.57838042 -0.12339208 0 0 Z " fill="#B39A61" transform="translate(399.958984375,821.09375)"/>
<path d="M0 0 C7.09468728 5.32101546 13.86010798 10.60427914 20 17 C18.63055898 19.94956528 17.12169591 22.52468811 15 25 C14.34 25 13.68 25 13 25 C13 25.66 13 26.32 13 27 C11.42578125 28.47265625 11.42578125 28.47265625 9.3125 30.0625 C8.62800781 30.58972656 7.94351562 31.11695313 7.23828125 31.66015625 C5 33 5 33 0 34 C0 22.78 0 11.56 0 0 Z " fill="#B09B6C" transform="translate(374,637)"/>
<path d="M0 0 C0.66 0 1.32 0 2 0 C2 0.66 2 1.32 2 2 C2.59296875 2.25523437 3.1859375 2.51046875 3.796875 2.7734375 C6.21224538 4.11816498 7.51211706 5.49214367 9.25 7.625 C9.77078125 8.25664063 10.2915625 8.88828125 10.828125 9.5390625 C11.40820312 10.26222656 11.40820312 10.26222656 12 11 C10.60366893 14.18559952 8.95442507 16.23943845 6.4375 18.625 C3.85984611 21.04521959 3.85984611 21.04521959 2 24 C1.34 24 0.68 24 0 24 C0 16.08 0 8.16 0 0 Z " fill="#B9A26C" transform="translate(384,793)"/>
<path d="M0 0 C0.66 0 1.32 0 2 0 C0.42114525 3.89431805 -2.24101735 6.48198787 -5.19921875 9.359375 C-5.71249222 9.8674469 -6.22576569 10.3755188 -6.7545929 10.89898682 C-8.39419699 12.52083649 -10.04031153 14.1358566 -11.6875 15.75 C-20.83067277 24.71039075 -20.83067277 24.71039075 -29.42797852 34.18994141 C-32.18740528 37.36720341 -35.15211622 40.33634932 -38.125 43.3125 C-38.71925781 43.91900391 -39.31351563 44.52550781 -39.92578125 45.15039062 C-43.07405602 48.30909014 -46.00557892 50.91234974 -50 53 C-48.46340964 49.34904902 -46.27424209 47.03782773 -43.47436523 44.26318359 C-43.01726166 43.80739426 -42.56015808 43.35160492 -42.08920288 42.88200378 C-40.58355212 41.38282229 -39.07105536 39.89074472 -37.55859375 38.3984375 C-36.50958825 37.35570488 -35.46109789 36.31245379 -34.4131012 35.26870728 C-31.65747108 32.52636196 -28.8963248 29.7896445 -26.13354492 27.05450439 C-21.70665244 22.67078479 -17.28651157 18.28028259 -12.86955452 13.88655472 C-11.32469314 12.3519302 -9.77647211 10.8207552 -8.22789001 9.28988647 C-7.29344559 8.36197296 -6.35900116 7.43405945 -5.39624023 6.47802734 C-4.5695433 5.65958344 -3.74284637 4.84113953 -2.89109802 3.99789429 C-0.94885526 2.13943257 -0.94885526 2.13943257 0 0 Z M-52 53 C-51.34 53.33 -50.68 53.66 -50 54 C-51.32 55.32 -52.64 56.64 -54 58 C-54.66 57.67 -55.32 57.34 -56 57 C-54.68 55.68 -53.36 54.36 -52 53 Z " fill="#D4E0DA" transform="translate(985,574)"/>
<path d="M0 0 C0.55611843 0.48677625 1.11223686 0.97355249 1.68520737 1.47507954 C4.40400994 3.26615042 5.81099673 3.38185668 9.03668213 3.39872742 C10.05187927 3.41126556 11.06707642 3.42380371 12.11303711 3.4367218 C13.77459839 3.43456917 13.77459839 3.43456917 15.46972656 3.43237305 C17.22624542 3.44766052 17.22624542 3.44766052 19.01824951 3.46325684 C22.8924228 3.49347331 26.76634918 3.50266629 30.640625 3.51171875 C33.32535983 3.52691202 36.01005704 3.54656235 38.69476318 3.56611633 C45.04114504 3.6097849 51.38750119 3.63832958 57.73398757 3.66143972 C64.96013752 3.68848954 72.18615422 3.73240113 79.41220903 3.77772844 C94.27473174 3.87057974 109.13729778 3.94225821 124 4 C124 4.33 124 4.66 124 5 C83.74 5 43.48 5 2 5 C1.34 3.35 0.68 1.7 0 0 Z " fill="#C8D7D1" transform="translate(539,513)"/>
<path d="M0 0 C0 3.52032428 -0.70351351 4.4385343 -3 7 C-3.66 7 -4.32 7 -5 7 C-5.226875 7.53625 -5.45375 8.0725 -5.6875 8.625 C-8.24267422 13.24864858 -11.59100251 16.72880711 -15.5859375 20.109375 C-20.45390227 24.32697968 -24.97159653 28.8611574 -29.5 33.4375 C-30.73363281 34.67790039 -30.73363281 34.67790039 -31.9921875 35.94335938 C-33.99712113 37.95994959 -35.99966253 39.97885236 -38 42 C-38.99 41.67 -39.98 41.34 -41 41 C-27.47 27.47 -13.94 13.94 0 0 Z " fill="#3C6E58" transform="translate(679,933)"/>
<path d="M0 0 C0.68797302 1.77655029 0.68797302 1.77655029 1 4 C-0.17051697 5.77178955 -0.17051697 5.77178955 -2.00756836 7.57519531 C-2.68834946 8.25559875 -3.36913055 8.9360022 -4.07054138 9.63702393 C-4.81941116 10.36008728 -5.56828094 11.08315063 -6.33984375 11.828125 C-7.47396446 12.95163361 -7.47396446 12.95163361 -8.6309967 14.09783936 C-11.05504848 16.49384203 -13.49588371 18.87191128 -15.9375 21.25 C-17.58121097 22.86864208 -19.22380438 24.48841988 -20.86523438 26.109375 C-24.8972678 30.08619929 -28.9432274 34.04842401 -33 38 C-33.99 37.67 -34.98 37.34 -36 37 C-35.56373795 36.56595856 -35.12747589 36.13191711 -34.67799377 35.6847229 C-30.1494336 31.1782378 -25.6243589 26.66827485 -21.10131836 22.15625 C-19.41146076 20.47142996 -17.72070793 18.78750734 -16.02905273 17.10449219 C-13.60165859 14.68918878 -11.1774723 12.2707063 -8.75390625 9.8515625 C-7.61327477 8.71867294 -7.61327477 8.71867294 -6.44960022 7.56289673 C-5.74894943 6.86232147 -5.04829865 6.16174622 -4.32641602 5.43994141 C-3.39709007 4.51394638 -3.39709007 4.51394638 -2.44898987 3.56924438 C-0.90637804 2.04459688 -0.90637804 2.04459688 0 0 Z " fill="#376A54" transform="translate(750,861)"/>
<path d="M0 0 C0.625 1.8515625 0.625 1.8515625 1 4 C-1.04516632 6.428635 -3.29017748 8.40471702 -5.71875 10.44140625 C-8.59991092 12.86132869 -11.26695019 15.18114536 -13.625 18.125 C-15.90566628 20.88580655 -18.18254686 22.81647381 -21 25 C-22.2684375 26.3303125 -22.2684375 26.3303125 -23.5625 27.6875 C-25.99414028 29.99444078 -26.86914694 30.39765829 -30 31 C-24.33425951 24.07189276 -17.96966361 17.85795858 -11.625 11.5625 C-10.49586045 10.43838533 -9.36695222 9.31403826 -8.23828125 8.18945312 C-5.49484812 5.45694765 -2.74830015 2.72760991 0 0 Z " fill="#356A54" transform="translate(553,294)"/>
<path d="M0 0 C0.66 0.66 1.32 1.32 2 2 C1.35160156 2.57621094 0.70320313 3.15242188 0.03515625 3.74609375 C-12.44983103 15.00078455 -24.16340315 27.07346992 -36 39 C-36.66 38.67 -37.32 38.34 -38 38 C-25.46 25.46 -12.92 12.92 0 0 Z " fill="#E1EAE4" transform="translate(390,497)"/>
<path d="M0 0 C5 0 5 0 7.01953125 1.64453125 C7.61121094 2.35996094 8.20289063 3.07539062 8.8125 3.8125 C9.71935547 4.87404297 9.71935547 4.87404297 10.64453125 5.95703125 C12 8 12 8 12 11 C11.44570313 10.43410156 10.89140625 9.86820313 10.3203125 9.28515625 C9.59585937 8.55167969 8.87140625 7.81820312 8.125 7.0625 C7.40570313 6.33160156 6.68640625 5.60070312 5.9453125 4.84765625 C4.12972808 2.94332001 4.12972808 2.94332001 2 2 C2 9.59 2 17.18 2 25 C1.34 25 0.68 25 0 25 C0 16.75 0 8.5 0 0 Z " fill="#B6A06D" transform="translate(384,750)"/>
<path d="M0 0 C3.98416091 0.54365542 5.78363228 2.43465185 8.546875 5.25390625 C9.39121094 6.10791016 10.23554687 6.96191406 11.10546875 7.84179688 C11.97816406 8.73962891 12.85085938 9.63746094 13.75 10.5625 C14.63816406 11.46419922 15.52632812 12.36589844 16.44140625 13.29492188 C18.63448315 15.52337098 20.82026044 17.75851593 23 20 C22.34 20.66 21.68 21.32 21 22 C19.5 20.625 19.5 20.625 18 19 C18 18.34 18 17.68 18 17 C17.443125 16.95875 16.88625 16.9175 16.3125 16.875 C13.42677631 15.78310455 12.15468746 14.01399493 10.296875 11.6171875 C8.8554442 9.7529477 8.8554442 9.7529477 6.3125 7.375 C4.23471443 5.24105806 3.22865047 3.64632409 2 1 C1.34 0.67 0.68 0.34 0 0 Z " fill="#42715C" transform="translate(916,507)"/>
<path d="M0 0 C0.66 0.66 1.32 1.32 2 2 C-0.73767123 4.82473024 -3.4921069 7.63252092 -6.25 10.4375 C-7.02730469 11.23994141 -7.80460938 12.04238281 -8.60546875 12.86914062 C-9.73662109 14.01479492 -9.73662109 14.01479492 -10.890625 15.18359375 C-11.58188477 15.89056396 -12.27314453 16.59753418 -12.98535156 17.32592773 C-15.05471985 19.04546946 -16.3704323 19.60556484 -19 20 C-13.17371096 12.84198775 -6.5617015 6.47408234 0 0 Z " fill="#2E654D" transform="translate(577,270)"/>
<path d="M0 0 C4.32504836 1.65863505 7.09418825 4.871041 10.25 8.125 C11.08144531 8.96998047 11.08144531 8.96998047 11.9296875 9.83203125 C13.29104485 11.21686028 14.64614859 12.60783204 16 14 C15.01 15.485 15.01 15.485 14 17 C9.125 12.375 9.125 12.375 8 9 C7.34 9 6.68 9 6 9 C4.64613064 7.34997172 3.31321858 5.6825613 2 4 C1.34 3.67 0.68 3.34 0 3 C0 2.01 0 1.02 0 0 Z " fill="#396A53" transform="translate(701,294)"/>
<path d="M0 0 C0.99 0.33 1.98 0.66 3 1 C-1.62 5.62 -6.24 10.24 -11 15 C-11.66 14.34 -12.32 13.68 -13 13 C-8.71 8.71 -4.42 4.42 0 0 Z " fill="#B79F69" transform="translate(397,517)"/>
<path d="M0 0 C4.07376031 1.61010527 6.76507069 4.53822271 9.75 7.625 C10.25660156 8.140625 10.76320313 8.65625 11.28515625 9.1875 C12.52803902 10.45383339 13.76465276 11.7263144 15 13 C14.34 13.66 13.68 14.32 13 15 C10.82722286 12.88094537 8.66173092 10.75527122 6.5 8.625 C5.87996094 8.02171875 5.25992188 7.4184375 4.62109375 6.796875 C4.03457031 6.21679688 3.44804688 5.63671875 2.84375 5.0390625 C2.29912109 4.50490723 1.75449219 3.97075195 1.19335938 3.42041016 C0 2 0 2 0 0 Z " fill="#3F6C59" transform="translate(705,339)"/>
<path d="M0 0 C3.90285767 1.58667578 6.33520982 4.13350481 9.25 7.125 C10.14203125 8.03507812 11.0340625 8.94515625 11.953125 9.8828125 C12.62859375 10.58148438 13.3040625 11.28015625 14 12 C13.34 12.66 12.68 13.32 12 14 C10 12.6875 10 12.6875 8 11 C8 10.01 8 9.02 8 8 C7.4225 7.7525 6.845 7.505 6.25 7.25 C3.67060021 5.81700012 1.93878408 4.21575324 0 2 C0 1.34 0 0.68 0 0 Z " fill="#42715B" transform="translate(902,492)"/>
<path d="M0 0 C0.66 0.33 1.32 0.66 2 1 C0.44221619 2.7543973 -1.12094705 4.50346011 -2.6875 6.25 C-3.55761719 7.22453125 -4.42773438 8.1990625 -5.32421875 9.203125 C-7.74793311 11.73652571 -10.2087849 13.88772911 -13 16 C-13.66 15.67 -14.32 15.34 -15 15 C-10.05 10.05 -5.1 5.1 0 0 Z " fill="#3E6F59" transform="translate(373,471)"/>
<path d="M0 0 C0.33 0.66 0.66 1.32 1 2 C-3.32893185 7.18419194 -7.76564995 11.72706118 -13 16 C-13.66 15.67 -14.32 15.34 -15 15 C-10.05 10.05 -5.1 5.1 0 0 Z " fill="#B8A26C" transform="translate(435,473)"/>
<path d="M0 0 C6.35945776 1.24086981 9.18350306 5.14469324 13 10 C12.34 10.66 11.68 11.32 11 12 C9.16364422 10.19047409 7.33083792 8.37759362 5.5 6.5625 C4.97535156 6.04623047 4.45070313 5.52996094 3.91015625 4.99804688 C2.58775448 3.68423213 1.29164432 2.34406495 0 1 C0 0.67 0 0.34 0 0 Z " fill="#406E5A" transform="translate(917,549)"/>
<path d="M0 0 C0.53463867 0.4844458 1.06927734 0.9688916 1.62011719 1.46801758 C4.60700157 3.39074013 6.54337715 3.42508277 10.078125 3.51171875 C11.81835938 3.56489258 11.81835938 3.56489258 13.59375 3.61914062 C15.40359375 3.65297852 15.40359375 3.65297852 17.25 3.6875 C19.08304688 3.73874023 19.08304688 3.73874023 20.953125 3.79101562 C23.96865846 3.87347162 26.98390194 3.94263201 30 4 C30 4.33 30 4.66 30 5 C20.76 5 11.52 5 2 5 C1.34 3.35 0.68 1.7 0 0 Z " fill="#D2DED8" transform="translate(539,513)"/>
<path d="M0 0 C3.45201639 1.47721422 5.64961936 3.43794001 8.25 6.125 C8.95640625 6.84945313 9.6628125 7.57390625 10.390625 8.3203125 C11.18726563 9.15175781 11.18726563 9.15175781 12 10 C11.01 11.485 11.01 11.485 10 13 C9.52949219 12.45730469 9.05898438 11.91460937 8.57421875 11.35546875 C7.95160156 10.64003906 7.32898438 9.92460937 6.6875 9.1875 C6.07261719 8.47980469 5.45773437 7.77210938 4.82421875 7.04296875 C3.06723259 5.01755954 3.06723259 5.01755954 1.26953125 3.36328125 C0 2 0 2 0 0 Z " fill="#3E6D56" transform="translate(720,313)"/>
<path d="M0 0 C0.33 0.99 0.66 1.98 1 3 C-0.24034412 4.32162881 -1.49268626 5.63200453 -2.75 6.9375 C-3.44609375 7.66839844 -4.1421875 8.39929688 -4.859375 9.15234375 C-7.00599725 11.00517646 -8.23532932 11.60771565 -11 12 C-7.49102731 7.81576108 -3.91939465 3.80411834 0 0 Z " fill="#3A6C56" transform="translate(713,899)"/>
<path d="M0 0 C0 3 0 3 -1.578125 5.66796875 C-4 8 -4 8 -7.234375 8.48828125 C-8.97460938 8.40126953 -8.97460938 8.40126953 -10.75 8.3125 C-11.92046875 8.26738281 -13.0909375 8.22226562 -14.296875 8.17578125 C-15.18890625 8.11777344 -16.0809375 8.05976563 -17 8 C-17 7.67 -17 7.34 -17 7 C-16.27554688 6.99742187 -15.55109375 6.99484375 -14.8046875 6.9921875 C-7.85425667 6.75934203 -7.85425667 6.75934203 -2.3125 2.9375 C-1.1678125 1.4834375 -1.1678125 1.4834375 0 0 Z " fill="#2E634D" transform="translate(539,349)"/>
<path d="M0 0 C2.125 0 2.125 0 5 1 C7.25484692 3.49775783 9.14265083 6.19801963 11 9 C10.01 9.33 9.02 9.66 8 10 C7.608125 9.278125 7.21625 8.55625 6.8125 7.8125 C4.85350102 4.772674 2.62036403 2.47872273 0 0 Z " fill="#2F5D4A" transform="translate(658,787)"/>
<path d="M0 0 C0.33 0 0.66 0 1 0 C1 1.65 1 3.3 1 5 C0.34 5 -0.32 5 -1 5 C-1 5.66 -1 6.32 -1 7 C0.32 7.66 1.64 8.32 3 9 C0.03 8.505 0.03 8.505 -3 8 C-2.45276317 4.62537285 -1.9451 2.91765 0 0 Z " fill="#345F4E" transform="translate(719,822)"/>
<path d="M0 0 C3.375 -0.125 3.375 -0.125 7 0 C7.66 0.66 8.32 1.32 9 2 C6.04335481 3.4783226 3.25770263 3.06032783 0 3 C0 2.01 0 1.02 0 0 Z " fill="#2F604C" transform="translate(746,751)"/>
<path d="M0 0 C0.66 0.66 1.32 1.32 2 2 C-0.31 4.31 -2.62 6.62 -5 9 C-5.66 8.34 -6.32 7.68 -7 7 C-4.69 4.69 -2.38 2.38 0 0 Z " fill="#B8A16B" transform="translate(407,599)"/>
<path d="M0 0 C0.66 0.66 1.32 1.32 2 2 C-0.31 4.31 -2.62 6.62 -5 9 C-5.66 8.34 -6.32 7.68 -7 7 C-4.69 4.69 -2.38 2.38 0 0 Z " fill="#B59E66" transform="translate(368,541)"/>
<path d="M0 0 C0.99 0.66 1.98 1.32 3 2 C2.21625 2.433125 1.4325 2.86625 0.625 3.3125 C-2.21698375 4.89220247 -2.21698375 4.89220247 -4 8 C-4.99 7.67 -5.98 7.34 -7 7 C-4.69 4.69 -2.38 2.38 0 0 Z " fill="#42725C" transform="translate(337,507)"/>
<path d="M0 0 C0.33 0.99 0.66 1.98 1 3 C-1.31 4.98 -3.62 6.96 -6 9 C-6.66 8.67 -7.32 8.34 -8 8 C-5.36 5.36 -2.72 2.72 0 0 Z " fill="#BAA46D" transform="translate(419,489)"/>
<path d="M0 0 C0.99 0.33 1.98 0.66 3 1 C1.1875 3.5 1.1875 3.5 -1 6 C-1.99 6 -2.98 6 -4 6 C-2.84826645 3.53199953 -1.95216435 1.95216435 0 0 Z " fill="#2E634D" transform="translate(543,616)"/>
<path d="M0 0 C0.33 0 0.66 0 1 0 C0.64989059 8.19256018 0.64989059 8.19256018 -2.0625 11.5625 C-2.701875 12.036875 -3.34125 12.51125 -4 13 C-3.29666462 10.02277453 -2.41751463 7.14743457 -1.4375 4.25 C-1.16808594 3.45078125 -0.89867187 2.6515625 -0.62109375 1.828125 C-0.41613281 1.22484375 -0.21117187 0.6215625 0 0 Z " fill="#366753" transform="translate(562,570)"/>
<path d="M0 0 C0 0.99 0 1.98 0 3 C-2.875 3.125 -2.875 3.125 -6 3 C-6.66 2.34 -7.32 1.68 -8 1 C-5.07175348 0.02391783 -3.04386724 -0.08226668 0 0 Z M-8 3 C-6 4 -6 4 -6 4 Z " fill="#3E745B" transform="translate(553,560)"/>
<path d="M0 0 C0.66 0.33 1.32 0.66 2 1 C0.95125002 3.62187494 0.35068687 4.79371361 -2.125 6.25 C-2.74375 6.4975 -3.3625 6.745 -4 7 C-3.43628586 3.73045798 -2.50037734 2.17424117 0 0 Z " fill="#2F5E4C" transform="translate(542,498)"/>
<path d="M0 0 C0.33 0.66 0.66 1.32 1 2 C-0.98 4.31 -2.96 6.62 -5 9 C-5.66 8.34 -6.32 7.68 -7 7 C-4.69 4.69 -2.38 2.38 0 0 Z " fill="#BAA36D" transform="translate(439,402)"/>
<path d="M0 0 C1.485 0.99 1.485 0.99 3 2 C3.1875 4.625 3.1875 4.625 3 7 C2.01 7 1.02 7 0 7 C-0.93423645 3.98968256 -1.04449911 3.13349732 0 0 Z " fill="#CDDAD2" transform="translate(509,859)"/>
<path d="M0 0 C2.31 1.98 4.62 3.96 7 6 C6.34 6.66 5.68 7.32 5 8 C0 2.25 0 2.25 0 0 Z " fill="#DDE6E0" transform="translate(938,525)"/>
<path d="M0 0 C0 3 0 3 -2.5 5.6875 C-3.325 6.450625 -4.15 7.21375 -5 8 C-5.66 7.67 -6.32 7.34 -7 7 C-4.69 4.69 -2.38 2.38 0 0 Z " fill="#45745F" transform="translate(679,933)"/>
<path d="M0 0 C0 3 0 3 -2.5 5.6875 C-3.325 6.450625 -4.15 7.21375 -5 8 C-5.66 7.67 -6.32 7.34 -7 7 C-4.69 4.69 -2.38 2.38 0 0 Z " fill="#41705B" transform="translate(687,925)"/>
</svg>
